<svg width="18" height="16" viewBox="0 0 18 16" fill="none" xmlns="http://www.w3.org/2000/svg">
<path d="M15.6666 2.33334H13.025L11.5 0.666672H6.49996L4.97496 2.33334H2.33329C1.41663 2.33334 0.666626 3.08334 0.666626 4.00001V14C0.666626 14.9167 1.41663 15.6667 2.33329 15.6667H15.6666C16.5833 15.6667 17.3333 14.9167 17.3333 14V4.00001C17.3333 3.08334 16.5833 2.33334 15.6666 2.33334ZM15.6666 14H2.33329V4.00001H5.70829L7.23329 2.33334H10.7666L12.2916 4.00001H15.6666V14ZM8.99996 4.83334C6.69996 4.83334 4.83329 6.7 4.83329 9C4.83329 11.3 6.69996 13.1667 8.99996 13.1667C11.3 13.1667 13.1666 11.3 13.1666 9C13.1666 6.7 11.3 4.83334 8.99996 4.83334ZM8.99996 11.5C7.62496 11.5 6.49996 10.375 6.49996 9C6.49996 7.625 7.62496 6.5 8.99996 6.5C10.375 6.5 11.5 7.625 11.5 9C11.5 10.375 10.375 11.5 8.99996 11.5Z" fill="#9679C1"/>
</svg>
