<svg width="206" height="57" viewBox="0 0 206 57" fill="none" xmlns="http://www.w3.org/2000/svg">
<g clip-path="url(#clip0_1_17)">
<g filter="url(#filter0_d_1_17)">
<path d="M31.4381 0C31.5184 0.0358783 31.6031 0.0612758 31.69 0.0755647C34.5389 0.183143 37.3584 0.690932 40.0655 1.58397C43.0686 2.56419 45.8991 4.0092 48.4534 5.86624C51.9939 8.41702 54.924 11.72 57.0329 15.5375C58.2742 17.8068 59.2189 20.2258 59.8439 22.7352C60.1877 24.0675 60.4531 25.4188 60.6388 26.7821C60.7713 27.7361 60.8522 28.6966 60.8811 29.6593C60.8869 29.8879 60.9137 30.1165 60.9156 30.3451C60.9412 32.1955 60.7905 34.0442 60.4655 35.866C60.0277 38.2592 59.2815 40.5856 58.2454 42.7873C57.0509 45.3046 55.5482 47.6642 53.7718 49.8119C53.1298 50.612 52.4467 51.3782 51.7251 52.1075C50.8544 52.9681 49.9265 53.7689 48.9476 54.5045C47.869 55.3113 46.746 56.0573 45.584 56.7389C45.4576 56.8135 45.2967 56.8527 45.2268 57.0048H44.9519C44.8959 56.9337 44.8358 56.866 44.7718 56.802C42.3133 54.6384 39.9285 52.3925 37.4115 50.2978C36.3788 49.4536 35.3994 48.5464 34.4789 47.5813C32.3778 45.3521 30.5544 42.8771 29.0485 40.2105C28.2306 38.7556 27.5161 37.253 27.0018 35.6594C26.5124 34.129 26.2796 32.5699 26.4664 30.9592C26.6742 29.1609 27.4625 27.7071 28.945 26.6415C29.5466 26.2185 30.1984 25.8715 30.8854 25.6085C32.2303 25.0904 33.6453 24.7767 35.0833 24.6778C35.3572 24.6568 35.633 24.6367 35.905 24.5984C36.177 24.5602 36.2728 24.4157 36.176 24.1479C36.0476 23.8205 35.8621 23.5184 35.6282 23.2555C35.1922 22.7403 34.689 22.2858 34.1322 21.9039C33.6035 21.5386 33.0624 21.1923 32.5203 20.8461C32.0897 20.5812 31.687 20.2735 31.3183 19.9278C30.8167 19.4329 30.3908 18.867 30.0541 18.2482C29.4284 17.1227 28.6192 16.1093 27.6597 15.2495C25.6995 13.4548 23.1794 12.3903 20.5245 12.2356C19.3226 12.1543 18.1397 12.3054 16.9732 12.5828C15.1841 13.0075 13.5607 13.7804 12.2046 15.0305C9.815 17.2305 8.40328 19.9402 8.09967 23.1952C7.97995 24.4741 7.95697 25.7587 7.93877 27.0413C7.92824 27.775 7.95218 28.5086 7.97229 29.2413C7.99719 30.1117 8.03646 30.9812 8.06806 31.8526C8.10063 32.8291 8.15235 33.8067 8.15235 34.7842C8.15235 36.7872 8.2213 38.7882 8.2644 40.7901C8.31229 43.0216 8.31804 45.2541 8.34198 47.4857C8.34198 47.5813 8.34198 47.6693 8.34198 47.7611C8.35347 48.7546 8.36433 49.7481 8.37454 50.7416C8.37454 50.8258 8.40711 50.9252 8.29409 51.0018C8.13298 50.8951 7.99033 50.763 7.87173 50.6106C7.35071 50.0089 6.8115 49.4216 6.3288 48.7932C3.86358 45.5804 2.07204 41.9044 1.06118 37.9847C0.595431 36.2093 0.302912 34.393 0.187715 32.5613C0.166034 32.1659 0.103125 31.7739 0 31.3915V29.2805C0.0680001 28.9543 0.158991 28.6349 0.172399 28.2972C0.225666 27.137 0.362328 25.9821 0.581348 24.8414C1.09022 22.0576 1.99656 19.3611 3.27262 16.8345C4.83587 13.7291 6.92078 10.9144 9.43669 8.51289C11.1598 6.8602 13.0715 5.41553 15.1324 4.20862C17.6284 2.74199 20.3241 1.64431 23.1354 0.949808C25.1409 0.450778 27.1928 0.160367 29.2582 0.0832154C29.3463 0.0832154 29.4498 0.102345 29.5044 0.00478135L31.4381 0ZM54.0687 34.9124C54.0794 34.4378 54.0243 33.964 53.9049 33.5044C53.2814 31.0998 50.8708 29.7167 48.4218 30.15C47.4355 30.3308 46.5231 30.794 45.7957 31.4833C45.5256 31.7311 45.2909 32.0161 45.0381 32.282C44.9159 32.4178 44.785 32.5456 44.6464 32.6646C44.4883 32.7918 44.3456 32.7861 44.1857 32.6579C44.0805 32.57 43.9843 32.472 43.8984 32.3652C43.7796 32.2246 43.6762 32.0725 43.5593 31.931C42.9992 31.2365 42.2752 30.6919 41.4523 30.3461C41.0871 30.1844 40.6944 30.0939 40.2953 30.0792C39.4351 30.0514 38.578 30.1945 37.7736 30.5001C36.3255 31.074 35.3677 32.0955 34.9779 33.6173C34.8069 34.3338 34.7744 35.0762 34.8821 35.8048C34.9824 36.5029 35.1686 37.1859 35.4367 37.8384C35.9814 39.2067 36.762 40.4693 37.7429 41.5687C39.7504 43.8586 41.7591 46.1481 43.7691 48.4374C43.8382 48.5191 43.9124 48.5965 43.9913 48.6688C44.2786 48.9252 44.5219 48.93 44.8025 48.6803C44.9141 48.5754 45.0193 48.4639 45.1176 48.3465C45.788 47.5909 46.4584 46.8346 47.1288 46.0777C48.5061 44.5167 49.8881 42.9595 51.2567 41.3908C52.1328 40.4059 52.8405 39.2835 53.3513 38.0689C53.7679 37.0578 54.0495 36.0143 54.0687 34.9124Z" fill="#4C4C4C"/>
<path d="M206 46.7195L201.359 46.7118H199.499C199.475 46.6196 199.457 46.526 199.445 46.4316C199.438 46.2948 199.445 46.1561 199.445 46.0193C199.445 31.9472 199.445 17.8752 199.445 3.80306C199.43 3.58449 199.441 3.36494 199.477 3.14881C199.551 3.1322 199.627 3.12102 199.703 3.11533L205.998 3.12107L206 46.7195Z" fill="#4C4C4C"/>
<path d="M131.968 15.7374C132.025 15.722 132.083 15.7118 132.141 15.7068H137.076C137.25 16.3151 137.29 16.9244 137.399 17.5241C137.509 18.1238 137.591 18.7312 137.692 19.3348C137.792 19.9383 137.856 20.5419 137.994 21.1263C138.162 21.2047 138.282 21.1808 138.365 21.0374C138.427 20.9321 138.487 20.826 138.552 20.7208C139.654 18.9082 141.094 17.4371 142.952 16.3887C144.507 15.5088 146.276 15.0783 148.062 15.1453C148.858 15.1594 149.652 15.2211 150.441 15.3299C150.616 15.3465 150.787 15.3911 150.948 15.4619C150.92 15.8445 150.892 16.2147 150.861 16.6307C151.004 16.5724 151.105 16.5418 151.196 16.493C151.803 16.1649 152.409 15.8359 153.023 15.5241C153.119 15.4786 153.204 15.4135 153.272 15.3328C153.341 15.2522 153.391 15.158 153.421 15.0563C153.9 13.6216 154.398 12.1916 154.888 10.7607C155.079 10.2107 155.263 9.66069 155.453 9.11166C155.483 9.02557 155.524 8.94332 155.565 8.84671C156.007 8.79027 156.449 8.82662 156.891 8.82088C157.35 8.81419 157.81 8.81514 158.27 8.82088C158.708 8.82567 159.15 8.7941 159.589 8.84288C159.668 9.03418 159.641 9.19966 159.641 9.36418C159.641 11.2912 159.641 13.2189 159.641 15.1472C159.641 15.3127 159.649 15.4782 159.653 15.6398C159.836 15.7355 160.008 15.701 160.171 15.701C162.101 15.7048 164.031 15.7048 165.961 15.701C166.632 15.701 167.31 15.701 167.984 15.701C168.134 15.701 168.283 15.7154 168.393 15.7201C168.418 15.7399 168.44 15.7617 168.461 15.7852C168.468 15.7988 168.472 15.8139 168.472 15.8292C168.476 15.9248 168.485 16.0119 168.485 16.1037C168.485 17.5876 168.483 19.0714 168.478 20.5553C168.473 20.5884 168.464 20.6206 168.45 20.6509C168.303 20.76 168.129 20.7141 167.965 20.7141C166.327 20.7179 164.688 20.7179 163.048 20.7141C162.083 20.7141 161.117 20.7141 160.153 20.7141C160.002 20.7141 159.852 20.7265 159.674 20.7332C159.66 20.8403 159.645 20.9245 159.64 21.0144C159.635 21.1215 159.64 21.2287 159.64 21.3358C159.64 26.5519 159.64 31.7684 159.64 36.9851C159.64 37.5198 159.64 38.0555 159.752 38.5835C159.793 38.7748 159.829 38.9747 159.885 39.1641C160.296 40.55 161.243 41.3793 162.613 41.7543C163.211 41.9048 163.83 41.9594 164.445 41.9159C165.716 41.8684 166.977 41.6706 168.202 41.3267C168.375 41.276 168.552 41.2416 168.73 41.1986C168.793 41.5563 168.807 45.6195 168.747 46.1542C168.608 46.2126 168.46 46.2833 168.299 46.3388C167.226 46.7027 166.118 46.9556 164.993 47.0935C163.84 47.2528 162.674 47.3024 161.511 47.2417C160.329 47.1757 159.169 46.9902 158.055 46.5645C156.073 45.807 154.686 44.4449 153.875 42.4898C153.501 41.5676 153.254 40.5991 153.141 39.6108C153.035 38.6993 152.985 37.7822 152.993 36.8646C152.993 31.695 152.993 26.5248 152.993 21.354C153.006 21.1499 152.995 20.945 152.959 20.7437C152.672 20.694 152.401 20.7217 152.129 20.7179C151.839 20.7128 151.548 20.7128 151.256 20.7179C150.984 20.7179 150.71 20.6921 150.432 20.7494L150.309 21.5586C150.188 21.5386 150.102 21.529 150.017 21.5099C149.238 21.3401 148.444 21.2497 147.647 21.2401C146.034 21.2143 144.469 21.4687 143.037 22.2607C141.011 23.3817 139.68 25.0738 138.995 27.2757C138.685 28.3026 138.533 29.3703 138.542 30.4427C138.538 35.6582 138.538 40.8743 138.542 46.0911V46.6219C138.368 46.7625 138.192 46.709 138.031 46.709C136.268 46.7134 134.506 46.7134 132.745 46.709C132.561 46.709 132.377 46.709 132.194 46.709C132.12 46.709 132.048 46.6927 131.977 46.6841C131.955 46.6366 131.939 46.5864 131.931 46.5349C131.931 36.3156 131.931 26.0969 131.931 15.8789C131.937 15.8303 131.949 15.7827 131.968 15.7374Z" fill="#4C4C4C"/>
<path d="M175.664 32.7325C175.601 33.0568 175.651 33.3763 175.679 33.689C175.754 34.6349 175.939 35.5687 176.231 36.4715C176.587 37.5982 177.181 38.6355 177.972 39.5132C178.795 40.4069 179.828 41.082 180.977 41.4778C181.977 41.825 183.026 42.009 184.085 42.0231C186.247 42.085 188.407 41.8422 190.502 41.3019C191.788 40.9552 193.047 40.5159 194.27 39.9876C194.382 39.9398 194.495 39.892 194.61 39.8518C194.634 39.8432 194.667 39.8575 194.729 39.8652C194.792 40.0565 194.753 40.2717 194.76 40.4793C194.767 40.7079 194.76 40.9374 194.76 41.167V45.1221C194.658 45.1805 194.568 45.2407 194.473 45.2847C192.764 46.0813 190.951 46.6311 189.088 46.9175C187.119 47.2159 185.126 47.3229 183.137 47.237C181.135 47.1528 179.18 46.8094 177.321 46.0356C174.043 44.6716 171.704 42.3397 170.254 39.1143C169.629 37.7255 169.253 36.263 169.036 34.7575C168.858 33.5316 168.78 32.2933 168.802 31.0548C168.844 28.7525 169.114 26.4827 169.866 24.2895C170.575 22.2205 171.655 20.3735 173.212 18.8221C174.823 17.2171 176.748 16.1649 178.95 15.6121C180.409 15.2586 181.908 15.1022 183.409 15.1472C184.619 15.1642 185.824 15.3156 187 15.5987C189.176 16.1372 191.074 17.1731 192.642 18.781C194.072 20.2463 195.032 21.9852 195.604 23.9461C196.01 25.3266 196.23 26.7552 196.257 28.1939C196.281 29.5703 196.274 30.9467 196.279 32.3231C196.279 32.4264 196.264 32.5307 196.254 32.657C196.149 32.6684 196.062 32.6847 195.973 32.6866C195.821 32.6866 195.668 32.6866 195.515 32.6866C189.082 32.6866 182.649 32.6866 176.215 32.6866C176.034 32.6857 175.852 32.6531 175.664 32.7325ZM175.783 27.9108H189.176C189.283 27.9108 189.391 27.9156 189.498 27.9108C189.585 27.906 189.672 27.8869 189.77 27.8725C189.781 27.7913 189.787 27.7096 189.788 27.6277C189.775 27.3991 189.754 27.1705 189.737 26.9419C189.683 26.0099 189.493 25.0909 189.172 24.2139C188.406 22.1804 186.991 20.8661 184.852 20.3525C184.119 20.1894 183.367 20.1286 182.617 20.1717C179.972 20.2779 178.017 21.4754 176.806 23.8456C176.3 24.8366 176.02 25.8974 175.848 26.9897C175.808 27.2728 175.72 27.5559 175.783 27.9108Z" fill="#4C4C4C"/>
<path d="M120.269 15.7278C120.353 15.7192 120.426 15.7048 120.5 15.7048C122.596 15.7048 124.692 15.7048 126.812 15.7048C126.832 15.8206 126.854 15.9057 126.859 15.9918C126.866 16.1133 126.859 16.2367 126.859 16.3591V46.6564C126.782 46.6812 126.702 46.6988 126.621 46.709C125.025 46.709 123.431 46.709 121.841 46.709C121.789 46.7047 121.737 46.6967 121.686 46.6851C121.59 46.555 121.573 46.3838 121.536 46.225C121.282 45.1231 121.034 44.0202 120.783 42.9174C120.766 42.8437 120.739 42.773 120.719 42.7089C120.523 42.6132 120.401 42.6716 120.279 42.8303C119.98 43.2378 119.66 43.6296 119.321 44.004C118.306 45.0791 117.07 45.8328 115.701 46.3752C114.543 46.8252 113.326 47.103 112.088 47.1997C110.393 47.3495 108.684 47.2499 107.018 46.9041C105.859 46.6753 104.749 46.2451 103.738 45.6329C102.14 44.6458 101.057 43.2416 100.382 41.5075C100.001 40.506 99.747 39.4606 99.6268 38.396C99.526 37.5302 99.4777 36.6592 99.4822 35.7876C99.4822 29.3019 99.4822 22.8161 99.4822 16.3304C99.4822 16.1391 99.4515 15.9354 99.5234 15.7565C99.9161 15.6895 105.706 15.6895 106.123 15.7565C106.134 15.8349 106.15 15.922 106.154 16.009C106.16 16.1467 106.154 16.2845 106.154 16.4222C106.154 22.6025 106.154 28.7825 106.154 34.9621C106.142 35.8499 106.238 36.7358 106.441 37.6002C106.55 38.0454 106.693 38.4816 106.868 38.9049C107.487 40.3702 108.585 41.2904 110.125 41.6845C110.929 41.8816 111.758 41.9606 112.585 41.9188C113.382 41.8983 114.173 41.784 114.943 41.5783C116.908 41.0273 118.32 39.8394 119.124 37.9541C119.249 37.6595 119.366 37.3591 119.464 37.054C119.751 36.1188 119.946 35.1577 120.046 34.1845C120.172 32.9525 120.229 31.7145 120.216 30.4761C120.216 25.7491 120.216 21.0224 120.216 16.296C120.203 16.105 120.221 15.913 120.269 15.7278Z" fill="#4C4C4C"/>
<path d="M97.8818 46.1351C97.434 46.3491 96.9642 46.5136 96.4806 46.6258C95.3705 46.9192 94.236 47.1112 93.0911 47.1997C92.2672 47.2696 91.4394 47.2837 90.6135 47.2417C89.4163 47.1738 88.243 46.9816 87.1167 46.5454C85.1878 45.7984 83.8297 44.4669 83.0195 42.5702C82.6475 41.6809 82.3956 40.7462 82.2705 39.7906C82.1564 38.9265 82.103 38.0556 82.1106 37.1841C82.1144 31.908 82.1144 26.632 82.1106 21.3559C82.1245 21.1509 82.1133 20.945 82.077 20.7428C81.9142 20.7341 81.7648 20.7198 81.6164 20.7198C80.5293 20.7198 79.4413 20.7198 78.3543 20.7198C78.2049 20.7198 78.0478 20.7571 77.9109 20.6653C77.8515 20.3248 77.8361 18.4586 77.8898 17.8005C77.976 17.747 78.0737 17.6772 78.1771 17.6217C79.4873 16.9234 80.7946 16.2214 82.1115 15.5375C82.2132 15.4883 82.3034 15.4184 82.3763 15.3322C82.4493 15.246 82.5033 15.1455 82.5349 15.0372C83.1823 13.1242 83.8348 11.2157 84.4925 9.31157C84.5461 9.15375 84.6084 8.99879 84.6687 8.83332H88.7094C88.7348 8.93478 88.7521 9.03808 88.7612 9.14227C88.7669 9.62052 88.7612 10.0911 88.7612 10.5646C88.7612 12.095 88.7612 13.6254 88.7612 15.1558C88.7612 15.3203 88.7707 15.4858 88.7755 15.6513C88.9613 15.7374 89.1318 15.7039 89.2956 15.7048C91.6242 15.7048 93.9522 15.7048 96.2795 15.7048C96.586 15.7048 96.8924 15.7048 97.1989 15.7048C97.3043 15.7048 97.4096 15.7182 97.5313 15.7259C97.5605 15.7976 97.5818 15.8724 97.5945 15.9488C97.5945 17.4626 97.5945 18.9767 97.5945 20.4912C97.5895 20.5453 97.5809 20.599 97.5686 20.6519C97.4892 20.6792 97.4074 20.6994 97.3244 20.7121C97.1865 20.7236 97.0486 20.7121 96.9106 20.7121H89.3751C89.195 20.7121 89.014 20.7208 88.81 20.7255C88.7956 20.8403 88.7813 20.9264 88.7755 21.0125C88.7698 21.0986 88.7755 21.1961 88.7755 21.288C88.7755 26.6559 88.7755 32.0238 88.7755 37.3917C88.766 38.0192 88.8532 38.6444 89.0341 39.2454C89.4239 40.4764 90.2562 41.2646 91.4668 41.672C92.1602 41.9064 92.8785 41.9446 93.6007 41.9102C94.687 41.8641 95.7662 41.7112 96.8225 41.4539C97.0744 41.3908 97.3244 41.3162 97.5753 41.2502C97.6625 41.2282 97.7515 41.2148 97.8684 41.1909C97.8888 41.2648 97.9026 41.3403 97.9096 41.4166C97.9096 42.9305 97.9096 44.4446 97.9096 45.9591C97.9044 46.0183 97.8951 46.0771 97.8818 46.1351Z" fill="#4C4C4C"/>
<path d="M22.3854 20.1153C22.3708 20.3378 22.3421 20.5592 22.2992 20.7781C22.1077 21.5204 21.6288 21.9939 20.8885 22.1995C20.5329 22.293 20.1643 22.327 19.7976 22.2999C19.3973 22.2779 19.0668 22.0914 18.7795 21.8217C18.3742 21.4521 18.1175 20.9478 18.0574 20.403C17.9973 19.8582 18.1379 19.3101 18.4529 18.8613C18.9701 18.1248 19.7028 17.8474 20.5753 17.9938C21.4277 18.1363 22.0215 18.6251 22.2877 19.4601C22.3392 19.6752 22.3719 19.8945 22.3854 20.1153Z" fill="#4C4C4C"/>
</g>
</g>
<defs>
<filter id="filter0_d_1_17" x="-2" y="0" width="214" height="65.0048" filterUnits="userSpaceOnUse" color-interpolation-filters="sRGB">
<feFlood flood-opacity="0" result="BackgroundImageFix"/>
<feColorMatrix in="SourceAlpha" type="matrix" values="0 0 0 0 0 0 0 0 0 0 0 0 0 0 0 0 0 0 127 0" result="hardAlpha"/>
<feOffset dx="2" dy="4"/>
<feGaussianBlur stdDeviation="2"/>
<feComposite in2="hardAlpha" operator="out"/>
<feColorMatrix type="matrix" values="0 0 0 0 0 0 0 0 0 0 0 0 0 0 0 0 0 0 0.15 0"/>
<feBlend mode="normal" in2="BackgroundImageFix" result="effect1_dropShadow_1_17"/>
<feBlend mode="normal" in="SourceGraphic" in2="effect1_dropShadow_1_17" result="shape"/>
</filter>
<clipPath id="clip0_1_17">
<rect width="206" height="57" fill="white"/>
</clipPath>
</defs>
</svg>
