<svg width="168" height="238" viewBox="0 0 168 238" fill="none" xmlns="http://www.w3.org/2000/svg">
<g clip-path="url(#clip0_1_63)">
<path d="M60.9143 152.825C65.2876 138.045 65.463 122.41 67.185 107.094C68.9071 91.7777 72.4811 75.9809 82.2999 64.0928C88.5804 56.5093 96.9924 51.0457 105.268 45.7022L149.937 16.8681C151.256 16.0143 152.627 15.1443 154.16 14.8878C157.25 14.3814 160.285 16.511 161.802 19.2606C163.32 22.0103 163.641 25.2112 163.911 28.3277C164.649 36.7974 165.211 45.5172 162.683 53.6493C157.072 71.8289 137.307 83.7138 134.162 102.474C132.905 109.996 134.546 117.732 133.636 125.309C132.726 132.886 127.846 141.07 120.23 141.541L60.9143 152.825Z" fill="#BBA8B8"/>
<path d="M156.032 11.8687C160.334 7.81396 164.327 3.21712 169.636 0.623283C170.936 -0.0259878 172.762 -0.418797 173.658 0.723919C174.48 1.76925 173.882 3.2853 173.265 4.46048L169.954 10.7292C171.631 10.7681 173.09 7.09326 174.935 10.1351C176.147 12.9724 173.96 13.4529 173.051 14.917L174.539 14.9559C175.286 16.7974 175.622 18.7798 175.522 20.7643C175.422 22.7488 174.889 24.6876 173.96 26.4448C173.532 27.2466 173.012 28.029 172.859 28.925C172.706 29.821 173.064 30.889 173.915 31.1974C175.384 31.7396 177.388 29.8989 178.373 31.1033C178.88 31.7299 178.551 32.6551 178.204 33.3758C174.864 40.3911 178.415 48.059 173.805 54.3115C172.281 56.3762 163.622 57.8078 161.276 58.8564C160.438 59.233 159.326 59.4213 158.693 58.7623C158.215 58.2785 158.189 57.5254 158.193 56.8436L158.271 40.1022C158.287 36.5312 158.287 32.8628 156.971 29.5451C155.655 26.2273 152.734 23.2926 149.16 23.0978C145.453 22.8933 141.2 26.4415 137.645 25.1073C143.961 20.7702 150.382 17.1927 156.032 11.8687Z" fill="#4C4C4C"/>
<path d="M138.763 196.161C143.069 202.799 147.792 209.157 152.903 215.198C153.693 216.129 154.677 217.145 155.895 217.051C156.043 217.049 156.188 217.018 156.323 216.959C156.459 216.9 156.58 216.814 156.682 216.707C157.059 216.249 156.779 215.568 156.48 215.055C152.11 207.513 145.758 201.066 142.733 192.892C142.604 192.495 142.435 192.112 142.23 191.749L138.763 196.161Z" fill="#DA8D82"/>
<path d="M146.561 232.618C147.354 232.079 149.18 221.749 152.386 220.051C153.387 219.97 152.133 224.596 152.139 227.222C152.139 230.468 151.181 236.981 151.935 236.984C153.403 236.461 153.186 233.16 153.368 231.14C153.762 226.712 154.576 222.33 155.798 218.054C156.773 221.356 157.942 228.865 159.236 228.076C160.162 227.67 158.43 223.424 157.936 220.077C157.816 219.278 156.334 215.665 156.636 213.759C157.192 210.26 160.776 204.64 159.236 204.222C157.543 204.157 156.665 212.516 153.221 216.055C148.877 220.483 144.585 233.523 146.561 232.618Z" fill="#DA8D82"/>
<path d="M146.674 233.354C146.789 232.691 146.961 232.039 147.191 231.407C147.226 231.284 147.211 231.154 147.15 231.042C147.089 230.93 146.988 230.847 146.866 230.809C146.744 230.778 146.614 230.794 146.504 230.854C146.393 230.915 146.309 231.015 146.268 231.134C146.038 231.766 145.865 232.418 145.752 233.082C145.722 233.208 145.739 233.341 145.8 233.455C145.865 233.564 145.968 233.644 146.09 233.679C146.212 233.712 146.342 233.696 146.453 233.636C146.565 233.576 146.648 233.475 146.687 233.354H146.674Z" fill="#4C4C4C"/>
<path d="M152.698 237.513C152.698 237.156 152.698 236.796 152.718 236.439C152.718 236.265 152.731 236.093 152.757 235.922C152.757 235.835 152.757 235.75 152.783 235.666C152.809 235.581 152.783 235.565 152.783 235.513V235.452C152.813 235.325 152.795 235.193 152.734 235.078C152.67 234.97 152.566 234.89 152.445 234.854C152.323 234.821 152.192 234.836 152.08 234.896C151.969 234.957 151.885 235.058 151.847 235.179C151.737 235.946 151.688 236.722 151.701 237.497C151.702 237.625 151.754 237.747 151.844 237.838C151.935 237.929 152.057 237.981 152.185 237.984C152.313 237.981 152.436 237.929 152.527 237.838C152.618 237.748 152.67 237.625 152.672 237.497L152.698 237.513Z" fill="#4C4C4C"/>
<path d="M160.207 228.725C159.937 228.081 159.714 227.418 159.538 226.742C159.502 226.618 159.42 226.514 159.308 226.45C159.196 226.386 159.064 226.369 158.94 226.401C158.82 226.44 158.719 226.524 158.659 226.635C158.599 226.746 158.583 226.876 158.615 226.998C158.789 227.675 159.012 228.338 159.284 228.982C159.32 229.102 159.399 229.206 159.505 229.274C159.619 229.336 159.753 229.354 159.879 229.322C159.999 229.284 160.1 229.2 160.161 229.089C160.221 228.977 160.237 228.847 160.204 228.725H160.207Z" fill="#4C4C4C"/>
<path d="M1.4751 143.343C2.1899 151.615 9.05205 158.955 17.2625 160.224C24.6055 161.37 31.9972 158.114 39.4182 158.578C44.7695 158.903 49.8153 161.175 54.533 163.691C68.3385 171.089 80.5616 181.15 94.2859 188.688C117.962 201.696 173.103 185.071 176.976 179.569C180.001 175.267 188.348 173.209 187.025 168.122C185.703 163.035 171.605 134.931 122.368 115.356C106.122 108.902 87.9274 109.246 70.4667 109.376C54.7605 109.493 38.6514 110.827 23.8647 116.486C13.2726 120.56 0.376901 130.663 1.4751 143.343Z" fill="#9787AB"/>
<path d="M211.296 50.8022C209.798 50.325 208.183 50.4776 206.617 50.6334L153.709 55.9282C143.906 56.9021 133.925 57.9344 124.873 61.8236C110.7 67.9072 100.303 80.3473 91.7873 93.1964C84.4151 104.322 77.9494 116.174 69.4432 126.397C68.1241 127.984 63.1952 136.863 74.8465 139.528C86.8292 142.271 102.464 136.801 123.258 148.047C129.971 151.673 138.34 146.024 142.607 139.7C146.873 133.376 148.946 125.741 153.501 119.622C164.873 104.364 187.883 102.793 201.178 89.1741C207.121 83.0872 210.601 75.0784 213.83 67.206C215.01 64.3103 216.192 61.3009 216.105 58.1779C216.017 55.0549 214.275 51.7599 211.296 50.8022Z" fill="#BBA8B8"/>
<path d="M202.9 194.239C203.927 190.952 204.953 187.663 205.977 184.373C206.302 183.302 206.65 182.202 206.565 181.085C206.426 179.221 205.162 177.66 203.94 176.248C192.73 163.294 180.247 151.497 166.679 141.035C164.447 139.311 161.516 137.548 158.995 138.808C157.829 139.392 157.046 140.515 156.37 141.629C150.138 151.923 147.087 168.229 159.996 174.268C166.819 177.459 174.685 178.287 181.671 181.302C183.968 182.296 203.7 191.675 202.9 194.239Z" fill="#9787AB"/>
<path d="M227.808 40.3489C228.783 40.0243 229.813 39.6997 230.836 39.849C231.86 39.9983 232.883 40.719 232.99 41.7449C233.088 42.6798 232.435 43.5141 231.795 44.2056C229.653 46.536 227.244 48.6063 224.617 50.3737C225.241 51.4645 226.814 51.3216 228.071 51.2697C229.328 51.2177 230.995 51.9417 230.7 53.1623C230.576 53.6558 230.144 54.0031 229.725 54.3115L222.086 60.1549C224.89 61.1289 225.485 65.1511 223.964 67.6995C222.444 70.2479 219.601 71.647 216.917 72.9164C217.242 75.6401 221.212 76.9581 221.196 79.7045C221.15 80.5247 220.84 81.3082 220.312 81.938C218.363 84.4896 214.915 85.3239 211.725 85.7427C211.156 85.8174 210.552 85.8985 210.1 86.2654C209.22 86.9991 209.45 88.4242 208.866 89.4176C208.089 90.7746 206.169 90.9304 205.015 91.9854C204.569 92.4654 204.162 92.9811 203.8 93.5275C202.098 95.6895 199.232 96.4492 196.675 97.4718C193.13 98.8775 189.904 100.958 186.515 102.711C177.645 107.302 167.69 109.626 159.096 114.723C154.547 117.408 150.213 121.248 149.16 126.41C152.432 116.911 159.921 109.461 167.937 103.396C175.952 97.3322 184.747 92.2744 192.211 85.5414C194.527 83.454 196.792 81.0582 197.536 78.0326C198.345 74.7376 197.247 71.0562 198.709 67.9916C199.287 66.7808 200.223 65.7776 200.883 64.6089C201.542 63.4402 201.903 61.9502 201.246 60.7815C192.474 61.0704 183.701 61.9502 174.929 61.8658C168.304 61.8041 161.627 61.184 155.236 59.3758C153.286 58.8239 146.918 56.8274 151.337 56.2041C154.826 55.7107 159.98 54.8731 163.489 54.4673C177.508 52.8441 191.382 50.8282 205.002 47.163C212.654 45.0626 220.254 42.7707 227.808 40.3489Z" fill="#4C4C4C"/>
<path d="M24.4723 136.957C24.5015 137.601 24.4037 138.244 24.1842 138.849C23.9647 139.455 23.628 140.012 23.1932 140.488C22.7585 140.963 22.2342 141.349 21.6503 141.622C21.0664 141.895 20.4344 142.051 19.7903 142.08C19.1462 142.109 18.5027 142.011 17.8965 141.792C17.2903 141.573 16.7332 141.236 16.2571 140.802C15.781 140.368 15.3952 139.844 15.1217 139.26C14.8482 138.677 14.6925 138.046 14.6633 137.402C14.634 136.758 14.7319 136.115 14.9514 135.51C15.1708 134.904 15.5076 134.347 15.9423 133.872C16.3771 133.396 16.9014 133.011 17.4852 132.737C18.0691 132.464 18.7011 132.308 19.3452 132.279C19.9893 132.25 20.6328 132.348 21.2391 132.567C21.8453 132.786 22.4024 133.123 22.8785 133.557C23.3546 133.992 23.7404 134.515 24.0138 135.099C24.2873 135.682 24.4431 136.314 24.4723 136.957Z" fill="#AEAEAF"/>
<path d="M22.8022 137.032C22.8384 137.888 22.5343 138.724 21.956 139.357C21.3778 139.99 20.5724 140.369 19.7156 140.411C18.8585 140.447 18.0219 140.144 17.3883 139.566C16.7547 138.988 16.3754 138.183 16.3332 137.327C16.297 136.471 16.6013 135.635 17.1795 135.002C17.7578 134.369 18.5631 133.99 19.4199 133.948C20.277 133.912 21.1136 134.216 21.7472 134.793C22.3809 135.371 22.7601 136.176 22.8022 137.032Z" fill="#BA5535"/>
<path d="M21.2556 136.688C21.3832 137.135 21.3284 137.615 21.1031 138.022C20.8778 138.428 20.5005 138.73 20.0535 138.86C19.6058 138.988 19.1255 138.933 18.718 138.708C18.3104 138.483 18.009 138.105 17.8798 137.658C17.7514 137.211 17.8059 136.731 18.0313 136.324C18.2566 135.917 18.6346 135.616 19.082 135.487C19.5297 135.359 20.0096 135.414 20.4169 135.639C20.8242 135.864 21.1258 136.241 21.2556 136.688Z" fill="#4C4C4C"/>
<path d="M19.5206 136.224C19.5285 136.401 19.501 136.579 19.4398 136.746C19.3787 136.914 19.285 137.067 19.1642 137.198C19.0434 137.329 18.8979 137.435 18.736 137.509C18.5741 137.584 18.3991 137.626 18.221 137.632C18.0431 137.64 17.8654 137.613 17.6982 137.552C17.5309 137.49 17.3775 137.397 17.2467 137.276C17.1159 137.155 17.0104 137.01 16.9361 136.848C16.8619 136.687 16.8204 136.512 16.8141 136.334C16.8063 136.156 16.8338 135.979 16.895 135.812C16.9562 135.644 17.0499 135.491 17.1707 135.36C17.2916 135.23 17.4372 135.124 17.599 135.05C17.7609 134.976 17.9358 134.934 18.1138 134.928C18.2914 134.92 18.4688 134.948 18.6359 135.009C18.8029 135.07 18.9562 135.163 19.0869 135.283C19.2177 135.404 19.3233 135.549 19.3978 135.71C19.4722 135.872 19.514 136.046 19.5206 136.224Z" fill="white"/>
<path d="M4.17184 148.699C4.17184 148.699 1.28987 157.753 0.864233 160.958C0.539323 163.357 -0.89028 170.08 0.828498 170.836C2.54728 171.593 14.0784 161.298 14.5755 159.328C15.7419 154.718 4.17835 148.699 4.17835 148.699H4.17184Z" fill="#4C4C4C"/>
<path d="M0.630329 152.66C0.181953 150.712 0.854513 146.956 1.72202 145.102C2.10217 144.297 5.29606 144.833 5.76394 144.924C6.6981 145.125 7.57881 145.523 8.34783 146.089C9.11686 146.656 9.75667 147.38 10.225 148.212C11.1507 149.896 11.4093 151.866 10.9495 153.731C10.7772 154.517 10.4333 155.255 9.94228 155.893C8.57766 157.578 6.17657 157.906 4.01591 158.107C0.471137 158.438 1.2834 155.491 0.630329 152.66Z" fill="#4D4875"/>
<path d="M122.719 183.046C125.805 187.125 128.891 191.205 131.975 195.284C133.636 197.482 135.397 199.761 137.895 200.917C139.209 201.509 140.651 201.761 142.088 201.651C143.524 201.541 144.911 201.072 146.119 200.287C146.934 199.801 147.57 199.064 147.932 198.187C148.387 196.888 147.867 195.444 147.353 194.155C145.521 189.545 143.687 184.937 141.853 180.332C141.801 180.195 141.726 180.043 141.583 180.007C141.44 179.971 141.317 180.221 141.453 180.267L122.719 183.046Z" fill="#4D4875"/>
<path d="M116.571 198.904C122.018 204.643 127.825 210.03 133.957 215.032C134.903 215.805 136.056 216.613 137.239 216.308C137.384 216.28 137.521 216.223 137.642 216.14C137.764 216.058 137.868 215.951 137.947 215.827C138.233 215.308 137.834 214.688 137.447 214.237C131.771 207.624 124.337 202.449 119.873 194.966C119.674 194.598 119.437 194.251 119.168 193.931L116.571 198.904Z" fill="#DA8D82"/>
<path d="M130.913 233.319C131.592 232.644 131.495 222.155 134.338 219.898C135.312 219.639 134.922 224.424 135.407 226.995C136.011 230.196 136.255 236.763 136.999 236.627C138.344 235.844 137.528 232.64 137.324 230.624C136.903 226.198 136.903 221.741 137.324 217.314C138.873 220.382 141.414 227.547 142.542 226.537C143.377 225.969 140.894 222.109 139.79 218.911C139.523 218.149 137.408 214.866 137.353 212.938C137.259 209.393 139.751 203.199 138.155 203.085C136.479 203.332 137.151 211.711 134.412 215.818C130.985 220.963 129.152 234.565 130.913 233.319Z" fill="#DA8D82"/>
<path d="M131.179 233.978C131.179 233.653 131.179 233.328 131.209 233.004C131.209 232.845 131.235 232.679 131.254 232.533C131.254 232.494 131.254 232.455 131.254 232.416C131.254 232.299 131.254 232.494 131.254 232.387C131.254 232.28 131.283 232.205 131.296 232.114C131.328 231.988 131.31 231.855 131.248 231.741C131.184 231.633 131.08 231.553 130.959 231.52C130.836 231.487 130.706 231.502 130.594 231.562C130.483 231.623 130.399 231.724 130.361 231.845C130.241 232.548 130.185 233.261 130.192 233.975C130.193 234.102 130.245 234.224 130.335 234.315C130.426 234.405 130.548 234.457 130.676 234.458C130.804 234.455 130.925 234.403 131.016 234.313C131.106 234.223 131.159 234.102 131.163 233.975L131.179 233.978Z" fill="#4C4C4C"/>
<path d="M137.85 236.968C137.814 236.789 137.778 236.607 137.749 236.426C137.733 236.344 137.72 236.26 137.71 236.176C137.7 236.091 137.71 236.094 137.691 236.052C137.691 236.166 137.691 236.013 137.691 235.991C137.645 235.633 137.616 235.276 137.6 234.919C137.598 234.791 137.546 234.668 137.455 234.577C137.364 234.486 137.241 234.434 137.112 234.432C136.984 234.435 136.862 234.487 136.772 234.578C136.681 234.669 136.63 234.791 136.628 234.919C136.664 235.694 136.762 236.465 136.921 237.224C136.959 237.345 137.043 237.446 137.154 237.507C137.266 237.567 137.396 237.582 137.518 237.549C137.638 237.508 137.738 237.425 137.798 237.314C137.858 237.203 137.875 237.074 137.843 236.951L137.85 236.968Z" fill="#4C4C4C"/>
<path d="M143.637 226.959C143.253 226.375 142.912 225.764 142.616 225.131C142.551 225.025 142.447 224.947 142.326 224.915C142.205 224.882 142.077 224.897 141.966 224.956C141.862 225.024 141.787 225.128 141.755 225.248C141.723 225.368 141.737 225.495 141.794 225.605C142.09 226.238 142.431 226.849 142.815 227.433C142.881 227.539 142.984 227.616 143.105 227.648C143.225 227.681 143.354 227.667 143.464 227.608C143.57 227.542 143.647 227.439 143.68 227.318C143.712 227.198 143.698 227.069 143.64 226.959H143.637Z" fill="#4C4C4C"/>
<path d="M98.409 188.954L109.752 199.29C111.786 201.147 113.936 203.066 116.604 203.744C118.004 204.086 119.467 204.07 120.859 203.699C122.251 203.328 123.527 202.614 124.571 201.621C125.284 200.995 125.774 200.154 125.968 199.226C126.176 197.852 125.403 196.541 124.668 195.366C122.023 191.171 119.377 186.977 116.727 182.783C116.653 182.659 116.549 182.523 116.403 182.52C116.256 182.517 116.182 182.779 116.325 182.799L98.409 188.954Z" fill="#4D4875"/>
<path d="M38.4369 152.848L43.7167 153.822C43.8394 153.854 43.9698 153.838 44.0814 153.778C44.193 153.718 44.2775 153.618 44.3178 153.497C44.3516 153.375 44.3366 153.244 44.2761 153.132C44.2155 153.02 44.1141 152.936 43.9929 152.897L38.7131 151.923C38.5904 151.892 38.4604 151.908 38.349 151.968C38.2376 152.028 38.153 152.128 38.112 152.248C38.0783 152.37 38.0932 152.501 38.1537 152.613C38.2143 152.725 38.3157 152.809 38.4369 152.848Z" fill="#AEAEAF"/>
<path d="M51.6153 158.062C54.4212 159.081 57.0224 160.592 59.2962 162.525C59.7706 162.928 60.4627 162.243 59.985 161.837C57.5823 159.792 54.8309 158.195 51.8623 157.124C51.2709 156.909 51.0175 157.851 51.6056 158.062H51.6153Z" fill="#AEAEAF"/>
<path d="M50.8096 151.387C52.8046 151.632 54.7417 152.222 56.5345 153.131C57.0933 153.413 57.5872 152.575 57.0283 152.29C55.0807 151.307 52.9761 150.672 50.8096 150.413C50.6806 150.414 50.5571 150.466 50.4659 150.557C50.3746 150.648 50.323 150.771 50.3222 150.9C50.3255 151.028 50.3779 151.15 50.4685 151.241C50.5592 151.332 50.6813 151.384 50.8096 151.387Z" fill="#AEAEAF"/>
<path d="M75.3533 170.641C78.8807 172.76 82.8011 174.142 86.8779 174.706C87.0002 174.737 87.1297 174.721 87.2405 174.661C87.3514 174.6 87.4354 174.501 87.4757 174.381C87.5102 174.259 87.4956 174.128 87.4349 174.016C87.3742 173.905 87.2722 173.821 87.1508 173.784C83.1574 173.238 79.3163 171.889 75.8602 169.817C75.7486 169.751 75.6155 169.733 75.4903 169.765C75.3651 169.798 75.258 169.879 75.1925 169.99C75.127 170.102 75.1085 170.235 75.1411 170.36C75.1737 170.485 75.2547 170.592 75.3663 170.658L75.3533 170.641Z" fill="#AEAEAF"/>
<path d="M98.24 182.494C100.778 183.361 103.462 183.717 106.139 183.542C106.762 183.5 106.769 182.526 106.139 182.568C103.55 182.743 100.954 182.4 98.4999 181.559C97.9053 181.354 97.6487 182.296 98.24 182.497V182.494Z" fill="#AEAEAF"/>
<path d="M119.32 188.915L123.905 188.331C124.033 188.327 124.155 188.275 124.246 188.184C124.336 188.094 124.389 187.972 124.392 187.844C124.391 187.715 124.34 187.592 124.248 187.5C124.157 187.409 124.034 187.358 123.905 187.357L119.32 187.941C119.192 187.944 119.069 187.997 118.978 188.087C118.887 188.178 118.834 188.3 118.83 188.428C118.831 188.557 118.884 188.681 118.975 188.772C119.067 188.863 119.191 188.914 119.32 188.915Z" fill="#AEAEAF"/>
<path d="M111.201 179.702L115.194 179.523C115.323 179.52 115.445 179.467 115.536 179.376C115.627 179.285 115.679 179.162 115.681 179.033C115.68 178.905 115.628 178.782 115.537 178.691C115.446 178.6 115.323 178.548 115.194 178.546L111.201 178.728C111.072 178.731 110.95 178.784 110.86 178.874C110.769 178.965 110.717 179.087 110.713 179.215C110.713 179.344 110.765 179.468 110.856 179.559C110.947 179.651 111.071 179.702 111.201 179.702Z" fill="#AEAEAF"/>
<path d="M127.664 182.965C130.927 182.545 134.135 181.774 137.233 180.666C137.817 180.455 137.557 179.514 136.973 179.725C133.961 180.816 130.84 181.578 127.664 181.997C127.536 182.002 127.415 182.055 127.325 182.145C127.234 182.235 127.181 182.356 127.177 182.484C127.177 182.613 127.228 182.737 127.319 182.828C127.411 182.92 127.535 182.971 127.664 182.971V182.965Z" fill="#AEAEAF"/>
<path d="M136.05 188.681C138.854 187.811 141.701 187.084 144.579 186.503C145.196 186.38 144.933 185.442 144.322 185.565C141.442 186.143 138.594 186.87 135.79 187.743C135.192 187.928 135.465 188.87 136.05 188.681Z" fill="#AEAEAF"/>
<path d="M154.492 184.812L165.25 179.79C165.818 179.523 165.324 178.686 164.759 178.949L153.998 183.971C153.433 184.234 153.926 185.075 154.492 184.812Z" fill="#AEAEAF"/>
<path d="M36.2763 116.103L45.7539 114.911C46.368 114.833 46.3745 113.859 45.7539 113.937L36.2763 115.129C35.6622 115.203 35.6557 116.181 36.2763 116.103Z" fill="#AEAEAF"/>
<path d="M45.0846 120.307C47.4386 120.066 49.807 119.998 52.1709 120.102C52.798 120.128 52.7948 119.154 52.1709 119.128C49.8069 119.027 47.4387 119.096 45.0846 119.336C44.4673 119.401 44.4608 120.375 45.0846 120.31V120.307Z" fill="#AEAEAF"/>
<path d="M108.575 195.603L114.053 201.524C114.479 201.985 115.168 201.293 114.742 200.836L109.264 194.911C108.835 194.45 108.15 195.142 108.575 195.603Z" fill="#AEAEAF"/>
<path d="M51.911 141.804L55.9074 141.622C56.0356 141.619 56.1577 141.567 56.2484 141.476C56.3391 141.385 56.3915 141.263 56.3948 141.135C56.3931 141.007 56.3412 140.884 56.2501 140.793C56.1591 140.702 56.0361 140.65 55.9074 140.648L51.911 140.83C51.7825 140.833 51.66 140.885 51.5691 140.976C51.4783 141.066 51.4261 141.189 51.4236 141.317C51.4253 141.446 51.4772 141.569 51.5682 141.66C51.6592 141.75 51.7822 141.802 51.911 141.804Z" fill="#AEAEAF"/>
<path d="M54.4031 138.61C55.9753 138.865 57.5761 138.893 59.1565 138.694C59.2848 138.689 59.4064 138.636 59.4968 138.545C59.5873 138.454 59.6398 138.332 59.6439 138.204C59.643 138.075 59.5914 137.952 59.5002 137.86C59.409 137.769 59.2855 137.718 59.1565 137.717C57.6642 137.916 56.151 137.901 54.663 137.671C54.5407 137.639 54.4108 137.655 54.2998 137.716C54.1887 137.776 54.1048 137.876 54.0651 137.996C54.0306 138.118 54.0453 138.249 54.106 138.361C54.1667 138.472 54.2686 138.556 54.39 138.593L54.4031 138.61Z" fill="#AEAEAF"/>
<path d="M63.585 114.057L72.1464 113.119C72.7638 113.051 72.7703 112.074 72.1464 112.145L63.585 113.087C62.9677 113.155 62.9612 114.129 63.585 114.061V114.057Z" fill="#AEAEAF"/>
<path d="M154.19 141.642C157.584 143.309 160.662 145.553 163.287 148.274C163.723 148.728 164.411 148.037 163.976 147.586C161.294 144.804 158.149 142.508 154.68 140.801C154.118 140.525 153.624 141.363 154.19 141.642Z" fill="#AEAEAF"/>
</g>
<defs>
<clipPath id="clip0_1_63">
<rect width="233" height="238" fill="white"/>
</clipPath>
</defs>
</svg>
