<svg width="212" height="295" viewBox="0 0 212 295" fill="none" xmlns="http://www.w3.org/2000/svg">
<g clip-path="url(#clip0_1_64)">
<path d="M131.108 163.408C122.542 150.708 117.359 135.957 110.931 121.966C104.503 107.974 96.3071 94.076 83.9272 85.7274C76.0151 80.4069 66.9279 77.7245 57.9982 75.1154L9.80121 61.0403C8.37715 60.6225 6.90256 60.2048 5.48383 60.416C2.62862 60.8513 0.669599 63.7661 0.232138 66.8187C-0.205322 69.8713 0.544199 72.9972 1.31186 76.0277C3.3941 84.2652 5.70963 92.6874 10.5284 99.6385C21.2662 115.19 42.3108 120.591 51.0868 137.422C54.6023 144.171 55.6615 151.982 58.8919 158.886C62.1222 165.791 69.0073 172.094 75.7946 170.285L131.108 163.408Z" fill="#BBA8B8"/>
<path d="M2.88186 58.1116C-2.17086 55.5462 -7.12904 52.3762 -12.5894 51.4922C-13.9307 51.2623 -15.648 51.431 -16.0618 52.7784C-16.4417 54.0115 -15.433 55.2699 -14.5171 56.1998L-9.61555 61.1547C-11.0638 61.688 -13.5172 58.6405 -14.1466 62.0669C-14.2897 65.1121 -12.2299 64.9196 -10.9662 66.0365L-12.2503 66.5139C-12.309 68.4786 -11.9635 70.4549 -11.238 72.3042C-10.5125 74.1536 -9.42447 75.8315 -8.05017 77.2203C-7.41851 77.8525 -6.71384 78.4393 -6.29252 79.2425C-5.87121 80.0456 -5.83901 81.1626 -6.48151 81.7066C-7.58671 82.6548 -9.92564 81.5055 -10.396 82.9373C-10.636 83.6806 -10.0524 84.4594 -9.51765 85.0389C-4.35041 90.6921 -4.97778 99.0035 1.05094 103.558C3.04292 105.062 11.0481 103.854 13.4294 104.152C14.281 104.26 15.3098 104.11 15.6498 103.298C15.9103 102.699 15.6907 101.978 15.4685 101.333L10.0145 85.5058C8.85153 82.1296 7.67134 78.6564 7.75051 75.1256C7.82968 71.5947 9.4306 67.9513 12.482 66.7087C15.6464 65.4175 20.4937 67.5178 23.1616 65.2021C16.2628 62.9658 9.51779 61.4795 2.88186 58.1116Z" fill="#4C4C4C"/>
<path d="M77.2188 227.486C75.6026 235.046 73.5331 242.464 71.0227 249.696C70.6345 250.812 70.1036 252.066 69.0117 252.337C68.8827 252.379 68.7457 252.393 68.609 252.377C68.4723 252.361 68.3386 252.316 68.2159 252.244C67.7403 251.923 67.7644 251.194 67.8598 250.62C69.2414 242.186 72.7018 234.202 72.7076 225.567C72.6929 225.153 72.7167 224.74 72.7788 224.336L77.2188 227.486Z" fill="#DA8D82"/>
<path d="M82.1531 264.312C81.289 264.036 76.3747 254.797 73.0342 254.139C72.1362 254.358 74.7172 258.367 75.5565 260.855C76.6009 263.929 79.5311 269.811 78.8754 270.037C77.4276 269.977 76.5552 266.787 75.747 264.929C73.9785 260.852 71.8598 256.945 69.4194 253.258C69.6322 256.673 71.0288 264.129 69.6483 263.764C68.7109 263.654 68.8537 259.121 68.2073 255.806C68.0551 255.015 68.1836 251.155 67.3072 249.44C65.6973 246.291 60.7668 242.032 61.974 241.179C63.428 240.617 66.8817 248.272 71.021 250.602C76.2306 253.509 84.1658 264.585 82.1531 264.312Z" fill="#DA8D82"/>
<path d="M82.2911 265.043C81.9783 264.449 81.618 263.883 81.2144 263.352C81.145 263.247 81.1157 263.118 81.1326 262.995C81.1496 262.871 81.2116 262.762 81.3053 262.69C81.4018 262.625 81.5198 262.601 81.6358 262.626C81.7518 262.65 81.8571 262.719 81.9306 262.821C82.3351 263.351 82.6955 263.917 83.0074 264.512C83.0743 264.622 83.1019 264.753 83.085 264.88C83.0639 265.002 82.9996 265.108 82.9051 265.177C82.8091 265.245 82.6907 265.269 82.5743 265.244C82.458 265.22 82.3525 265.15 82.2798 265.047L82.2911 265.043Z" fill="#4C4C4C"/>
<path d="M78.3804 270.764C78.2655 270.426 78.1496 270.085 78.0177 269.752C77.962 269.589 77.8953 269.43 77.8177 269.275C77.7895 269.192 77.7623 269.112 77.7125 269.04C77.6627 268.968 77.6801 268.945 77.6634 268.896L77.6436 268.837C77.577 268.727 77.5494 268.596 77.5659 268.469C77.587 268.347 77.6514 268.241 77.7458 268.172C77.8416 268.104 77.9602 268.079 78.0768 268.104C78.1934 268.128 78.2989 268.199 78.3712 268.302C78.7142 268.996 79.0062 269.715 79.2443 270.453C79.284 270.575 79.2786 270.706 79.2291 270.819C79.1796 270.932 79.09 271.017 78.9791 271.058C78.8663 271.093 78.7428 271.08 78.6345 271.021C78.5261 270.962 78.4413 270.862 78.3978 270.741L78.3804 270.764Z" fill="#4C4C4C"/>
<path d="M69.0107 264.667C69.0382 263.977 69.0198 263.283 68.9558 262.591C68.9471 262.463 68.9853 262.34 69.062 262.247C69.1388 262.153 69.2482 262.097 69.367 262.091C69.4843 262.093 69.5987 262.143 69.687 262.23C69.7753 262.317 69.8308 262.435 69.8422 262.56C69.9087 263.252 69.9271 263.946 69.8972 264.636C69.9047 264.762 69.8697 264.883 69.7987 264.978C69.7195 265.072 69.6089 265.128 69.4888 265.135C69.3713 265.134 69.2564 265.085 69.168 264.997C69.0795 264.91 69.0242 264.791 69.0135 264.666L69.0107 264.667Z" fill="#4C4C4C"/>
<path d="M179.847 136.831C181.886 144.875 178.268 153.856 171.522 157.488C165.493 160.747 158.005 159.853 151.688 162.49C147.13 164.381 143.465 168.027 140.163 171.806C130.515 182.898 123.101 196.042 113.568 207.242C97.1236 226.568 43.7303 227.154 38.5854 223.09C34.5659 219.913 26.6309 220.436 26.1465 215.228C25.6622 210.02 28.9044 179.238 65.5076 146.126C77.5863 135.206 93.5506 130.145 108.806 125.098C122.529 120.559 136.994 117.053 151.698 118.032C162.238 118.753 176.725 124.501 179.847 136.831Z" fill="#9787AB"/>
<path d="M-32.745 111.336C-31.5934 110.44 -30.1373 110.107 -28.7226 109.791L19.0808 99.1392C27.9352 97.1591 36.9642 95.1813 46.1025 96.1835C60.4086 97.7475 73.4699 106.447 85.0238 116.092C95.0265 124.442 104.473 133.75 115.174 140.91C116.834 142.023 123.985 148.97 114.69 154.943C105.132 161.088 89.7496 160.538 75.2491 177.341C70.5669 182.762 61.457 179.892 55.7053 175.167C49.9537 170.443 45.6911 163.828 39.7533 159.382C24.9361 148.303 4.38146 153.628 -11.5843 144.671C-18.7205 140.667 -24.329 134.115 -29.6757 127.617C-31.635 125.225 -33.6337 122.726 -34.562 119.743C-35.4902 116.76 -35.0329 113.125 -32.745 111.336Z" fill="#BBA8B8"/>
<path d="M20.7166 244.656C18.7643 241.847 16.8127 239.037 14.8617 236.226C14.2339 235.308 13.5769 234.369 13.2912 233.286C12.8135 231.481 13.4124 229.628 14.0225 227.929C19.6226 212.346 26.7038 197.481 35.1597 183.558C36.55 181.265 38.5365 178.728 41.1385 179.174C42.3429 179.382 43.3865 180.214 44.3336 181.068C53.0753 188.97 60.9797 203.505 51.6747 213.044C46.7563 218.085 40.1687 221.198 35.0523 226.122C33.3704 227.742 19.1951 242.464 20.7166 244.656Z" fill="#9787AB"/>
<path d="M22.4726 267.37C21.9986 271.439 20.5095 276.666 16.641 276.424C15.1923 276.334 13.868 275.392 12.7939 274.303C8.64042 270.081 7.37306 262.996 9.81812 257.767C7.44651 258.631 6.19646 263.112 4.00443 262.543C-1.22391 259.777 -4.05547 252.531 -2.10577 246.894C-5.46929 244.783 -6.19221 239.663 -4.75001 235.971C-3.30782 232.279 -0.313021 229.643 2.47482 227.002C12.2955 217.754 19.7649 206.652 28.1429 195.909C24.646 201.602 24.7867 209.265 25.3128 216.232C26.2854 229.317 33.0683 227.55 32.7621 228.443C32.4559 229.336 29.9461 233.668 28.3224 239.047C25.5524 248.233 23.5943 257.713 22.4726 267.37Z" fill="#4C4C4C"/>
<path d="M-50.4951 106.327C-51.4488 106.309 -52.4507 106.306 -53.2944 106.751C-54.1381 107.195 -54.7981 108.18 -54.5614 109.183C-54.3456 110.097 -53.5081 110.694 -52.728 111.159C-50.112 112.731 -47.347 113.978 -44.4899 114.874C-44.6825 116.092 -46.0987 116.422 -47.211 116.745C-48.3233 117.068 -49.5427 118.247 -48.8924 119.315C-48.626 119.746 -48.1378 119.947 -47.6734 120.115L-39.1377 123.386C-41.2676 125.138 -40.4916 129.122 -38.3468 131.085C-36.2021 133.047 -33.2748 133.53 -30.5281 133.938C-29.9349 136.613 -32.9703 139.036 -32.0726 141.631C-31.7689 142.395 -31.2467 143.045 -30.584 143.484C-28.0645 145.323 -24.7924 145.092 -21.8777 144.544C-21.3582 144.447 -20.8055 144.345 -20.294 144.558C-19.2908 144.992 -19.0333 146.41 -18.2041 147.177C-17.0909 148.232 -15.3677 147.811 -14.0232 148.468C-13.4797 148.791 -12.9597 149.159 -12.4684 149.569C-10.2893 151.112 -7.54799 150.982 -4.991 151.194C-1.45015 151.475 2.0305 152.49 5.54722 153.146C14.7526 154.866 24.1746 154.12 33.3023 156.401C38.1295 157.596 43.1415 159.949 45.7194 164.524C39.8126 156.499 30.8902 151.663 21.9552 148.294C13.0202 144.926 3.72949 142.741 -4.93942 138.576C-7.62948 137.286 -10.3735 135.688 -11.9952 133.044C-13.7602 130.163 -13.9876 126.353 -16.2475 123.884C-17.141 122.909 -18.279 122.236 -19.2297 121.325C-20.1804 120.414 -20.974 119.11 -20.7782 117.809C-13.0415 115.485 -5.11479 113.721 2.50175 111.043C8.25431 109.024 13.8726 106.46 18.8594 102.856C20.3804 101.756 25.2869 97.9801 21.2362 98.6982C18.037 99.2642 13.2775 99.9969 10.0895 100.652C-2.64846 103.266 -15.3854 105.464 -28.4321 106.027C-35.7748 106.304 -43.1339 106.384 -50.4951 106.327Z" fill="#4C4C4C"/>
<path d="M157.755 137.594C157.937 138.212 158.229 138.792 158.615 139.301C159.001 139.809 159.473 140.236 160.005 140.558C160.537 140.88 161.118 141.089 161.715 141.175C162.311 141.261 162.912 141.221 163.483 141.058C164.053 140.895 164.582 140.612 165.04 140.225C165.498 139.838 165.875 139.354 166.15 138.802C166.425 138.25 166.593 137.64 166.643 137.006C166.694 136.373 166.627 135.729 166.445 135.111C166.263 134.493 165.971 133.913 165.585 133.405C165.199 132.896 164.727 132.469 164.195 132.147C163.663 131.826 163.082 131.616 162.485 131.53C161.889 131.444 161.288 131.484 160.717 131.647C160.147 131.81 159.618 132.093 159.16 132.48C158.702 132.868 158.325 133.351 158.05 133.903C157.775 134.456 157.607 135.066 157.557 135.699C157.506 136.332 157.573 136.976 157.755 137.594Z" fill="#AEAEAF"/>
<path d="M159.234 137.171C159.478 137.992 160.012 138.693 160.72 139.122C161.427 139.55 162.251 139.67 163.011 139.456C163.769 139.237 164.4 138.701 164.767 137.967C165.133 137.232 165.204 136.358 164.966 135.535C164.722 134.713 164.188 134.012 163.48 133.584C162.773 133.156 161.949 133.035 161.189 133.249C160.431 133.469 159.8 134.004 159.433 134.739C159.067 135.473 158.996 136.348 159.234 137.171Z" fill="#BA5535"/>
<path d="M160.471 136.387C160.504 136.848 160.706 137.286 161.033 137.604C161.36 137.923 161.786 138.097 162.217 138.087C162.649 138.076 163.05 137.882 163.332 137.548C163.615 137.215 163.756 136.768 163.725 136.306C163.693 135.845 163.491 135.407 163.164 135.088C162.836 134.769 162.41 134.596 161.979 134.606C161.548 134.618 161.147 134.812 160.865 135.146C160.582 135.479 160.441 135.926 160.471 136.387Z" fill="#4C4C4C"/>
<path d="M161.833 135.434C161.884 135.604 161.965 135.764 162.072 135.905C162.179 136.045 162.31 136.163 162.458 136.251C162.605 136.339 162.766 136.396 162.931 136.419C163.096 136.441 163.262 136.429 163.419 136.383C163.577 136.338 163.723 136.259 163.849 136.151C163.975 136.044 164.078 135.91 164.153 135.757C164.229 135.604 164.274 135.435 164.286 135.26C164.299 135.085 164.279 134.907 164.227 134.737C164.177 134.566 164.096 134.406 163.989 134.266C163.882 134.126 163.751 134.009 163.603 133.921C163.456 133.833 163.295 133.776 163.13 133.754C162.965 133.731 162.8 133.744 162.643 133.791C162.485 133.836 162.339 133.914 162.214 134.021C162.088 134.129 161.984 134.262 161.909 134.415C161.834 134.568 161.788 134.736 161.775 134.911C161.762 135.086 161.782 135.263 161.833 135.434Z" fill="white"/>
<path d="M179.221 142.701C179.221 142.701 184.645 150.42 186.046 153.328C187.101 155.503 190.51 161.445 189.256 162.671C188.001 163.896 174.642 157.563 173.575 155.845C171.076 151.825 179.215 142.703 179.215 142.703L179.221 142.701Z" fill="#4C4C4C"/>
<path d="M183.581 145.403C183.345 143.426 181.55 140.069 180.198 138.57C179.608 137.921 176.997 139.373 176.619 139.598C175.87 140.065 175.23 140.702 174.743 141.467C174.255 142.231 173.93 143.106 173.79 144.032C173.525 145.901 173.933 147.842 174.934 149.472C175.337 150.165 175.874 150.762 176.507 151.221C178.238 152.412 180.436 152.012 182.383 151.563C185.579 150.827 183.922 148.276 183.581 145.403Z" fill="#4D4875"/>
<path d="M86.9788 210.319C85.6019 215.095 84.2258 219.871 82.8508 224.647C82.1112 227.219 81.31 229.898 79.5047 231.732C78.5504 232.682 77.3756 233.347 76.0882 233.669C74.8008 233.99 73.4421 233.956 72.1369 233.571C71.27 233.352 70.4788 232.842 69.8814 232.119C69.0673 231.024 69.0555 229.502 69.0882 228.13C69.2018 223.223 69.3171 218.318 69.434 213.414C69.4354 213.269 69.4514 213.103 69.5645 213.027C69.6775 212.951 69.8656 213.151 69.7613 213.234L86.9788 210.319Z" fill="#4D4875"/>
<path d="M97.4371 223.513C94.5375 230.56 91.2107 237.379 87.477 243.931C86.9018 244.942 86.1568 246.049 85.0281 246.11C84.8932 246.126 84.7553 246.113 84.6227 246.071C84.49 246.029 84.3654 245.959 84.2564 245.865C83.8402 245.458 83.9889 244.752 84.1806 244.211C86.9989 236.269 91.8115 229.169 93.2939 220.762C93.3488 220.355 93.443 219.956 93.575 219.573L97.4371 223.513Z" fill="#DA8D82"/>
<path d="M96.0128 260.343C95.2039 259.905 91.9143 249.945 88.7113 248.65C87.7785 248.693 89.6577 253.108 90.063 255.686C90.5662 258.895 92.4668 265.186 91.7746 265.277C90.3509 264.934 90.0306 261.659 89.5604 259.69C88.5029 255.374 87.0691 251.155 85.2783 247.088C84.9149 250.451 85.0061 257.987 83.6989 257.365C82.7886 257.074 83.7096 252.685 83.6434 249.33C83.6301 248.529 84.4172 244.795 83.8449 242.953C82.7865 239.569 78.6224 234.442 79.9759 233.862C81.5161 233.6 83.6257 241.732 87.3334 244.809C91.9755 248.666 97.9483 261.002 96.0128 260.343Z" fill="#DA8D82"/>
<path d="M95.9927 261.046C95.8882 260.738 95.7838 260.431 95.6539 260.132C95.6027 259.982 95.5268 259.833 95.4628 259.7C95.4503 259.663 95.4377 259.626 95.4252 259.59C95.3876 259.479 95.4503 259.663 95.4158 259.562C95.3813 259.46 95.3318 259.398 95.2913 259.316C95.2233 259.206 95.1956 259.075 95.2136 258.948C95.2345 258.827 95.2994 258.721 95.3946 258.654C95.4903 258.586 95.609 258.561 95.7255 258.585C95.8421 258.61 95.9477 258.681 96.0199 258.784C96.3504 259.415 96.6289 260.073 96.8523 260.75C96.8919 260.872 96.8863 261.003 96.8365 261.115C96.7868 261.227 96.6969 261.312 96.5861 261.352C96.4738 261.386 96.3511 261.373 96.2432 261.315C96.1353 261.257 96.0504 261.157 96.0058 261.038L95.9927 261.046Z" fill="#4C4C4C"/>
<path d="M91.1426 265.852C91.1163 265.672 91.0889 265.489 91.0559 265.308C91.0439 265.227 91.0281 265.143 91.0094 265.06C90.9908 264.977 90.9833 264.983 90.9868 264.938C91.0233 265.045 90.9742 264.901 90.9669 264.879C90.8917 264.528 90.8022 264.181 90.7015 263.838C90.6616 263.716 90.6673 263.584 90.7173 263.471C90.7674 263.358 90.8579 263.272 90.9695 263.233C91.082 263.197 91.2052 263.21 91.3132 263.27C91.4211 263.329 91.5053 263.43 91.548 263.55C91.7661 264.295 91.9289 265.053 92.0347 265.819C92.0402 265.945 91.9999 266.066 91.9223 266.156C91.8446 266.246 91.7356 266.299 91.6182 266.304C91.5011 266.301 91.3871 266.251 91.299 266.164C91.2108 266.077 91.1551 265.959 91.143 265.834L91.1426 265.852Z" fill="#4C4C4C"/>
<path d="M82.8806 258.089C83.0268 257.422 83.1274 256.743 83.1816 256.056C83.2044 255.936 83.2699 255.832 83.3647 255.765C83.4594 255.699 83.5763 255.675 83.6914 255.698C83.8039 255.731 83.903 255.807 83.9694 255.911C84.0357 256.015 84.0646 256.14 84.0503 256.262C83.9962 256.948 83.8956 257.628 83.7494 258.294C83.7259 258.414 83.6602 258.518 83.5656 258.584C83.471 258.651 83.3545 258.675 83.2396 258.652C83.126 258.621 83.0255 258.546 82.9584 258.442C82.8913 258.337 82.8625 258.211 82.8778 258.09L82.8806 258.089Z" fill="#4C4C4C"/>
<path d="M110.061 208.715L103.504 221.86C102.329 224.22 101.072 226.673 98.9659 228.106C97.8563 228.843 96.5765 229.262 95.2442 229.323C93.912 229.384 92.5699 229.085 91.3413 228.454C90.5186 228.072 89.8209 227.421 89.3532 226.599C88.7302 225.361 88.9821 223.89 89.2438 222.56C90.1988 217.806 91.1558 213.051 92.1146 208.296C92.14 208.157 92.1868 207.997 92.3131 207.951C92.4395 207.904 92.5892 208.131 92.4709 208.192L110.061 208.715Z" fill="#4D4875"/>
<path d="M25.6145 216.153C26.5872 229.238 33.37 227.472 33.0639 228.364C32.7577 229.257 30.2497 233.586 28.6231 238.966C27.8419 241.549 27.1269 244.156 26.478 246.788C25.7646 247.968 24.8013 248.946 23.6605 249.648C23.2453 248.761 22.829 247.874 22.4119 246.987C20.328 246.913 18.8412 249.49 16.7466 249.217C15.4471 249.045 14.4362 247.743 14.0975 246.384C13.7588 245.025 13.9545 243.621 14.1436 242.254L15.893 229.93L10.7483 233.163C10.2445 232.253 9.98967 231.221 10.0143 230.19C10.039 229.158 10.3421 228.171 10.8874 227.346L9.18493 227.633C7.78381 224.68 9.50125 221.333 11.1731 218.698L12.9916 215.834C18.3142 209.38 23.195 202.527 28.4327 195.814C24.9477 201.524 25.0969 209.184 25.6145 216.153Z" fill="#4D4875"/>
<path d="M150.7 156.774L146.413 159.26C146.316 159.326 146.198 159.35 146.081 159.326C145.964 159.302 145.858 159.232 145.785 159.13C145.716 159.024 145.687 158.896 145.703 158.772C145.72 158.648 145.781 158.538 145.875 158.465L150.162 155.98C150.258 155.914 150.377 155.891 150.493 155.915C150.61 155.939 150.716 156.008 150.79 156.109C150.859 156.216 150.888 156.344 150.871 156.468C150.854 156.592 150.793 156.701 150.7 156.774Z" fill="#AEAEAF"/>
<path d="M140.895 165.612C138.778 167.408 136.998 169.609 135.638 172.113C135.354 172.634 134.531 172.19 134.817 171.665C136.252 169.017 138.136 166.691 140.378 164.797C140.824 164.419 141.348 165.235 140.903 165.609L140.895 165.612Z" fill="#AEAEAF"/>
<path d="M139.449 159.054C137.79 159.877 136.292 161.009 135.022 162.4C134.626 162.833 133.926 162.186 134.321 161.75C135.702 160.243 137.331 159.018 139.136 158.132C139.249 158.095 139.373 158.107 139.482 158.166C139.591 158.226 139.675 158.327 139.717 158.449C139.756 158.571 139.749 158.702 139.699 158.815C139.65 158.927 139.56 159.013 139.449 159.054Z" fill="#AEAEAF"/>
<path d="M124.258 184.551C121.866 187.601 118.895 190.07 115.524 191.811C115.428 191.877 115.31 191.9 115.194 191.876C115.078 191.851 114.973 191.782 114.899 191.681C114.83 191.575 114.8 191.447 114.817 191.323C114.834 191.2 114.896 191.09 114.99 191.019C118.294 189.32 121.207 186.905 123.552 183.92C123.628 183.825 123.738 183.768 123.857 183.762C123.977 183.756 124.096 183.801 124.189 183.887C124.282 183.973 124.341 184.093 124.353 184.221C124.365 184.35 124.329 184.475 124.252 184.57L124.258 184.551Z" fill="#AEAEAF"/>
<path d="M108.13 202.549C106.198 204.121 103.973 205.253 101.585 205.88C101.028 206.025 100.709 205.104 101.272 204.958C103.583 204.357 105.735 203.263 107.603 201.74C108.055 201.371 108.582 202.186 108.131 202.552L108.13 202.549Z" fill="#AEAEAF"/>
<path d="M91.8283 214.869L87.6458 215.674C87.533 215.708 87.4098 215.695 87.3017 215.636C87.1935 215.577 87.1086 215.477 87.0645 215.357C87.0238 215.234 87.0291 215.102 87.0792 214.989C87.1294 214.876 87.2204 214.79 87.3325 214.751L91.515 213.947C91.6281 213.912 91.7516 213.926 91.8602 213.984C91.9688 214.043 92.0543 214.143 92.0992 214.263C92.1393 214.386 92.1333 214.518 92.0827 214.632C92.0321 214.745 91.9407 214.83 91.8283 214.869Z" fill="#AEAEAF"/>
<path d="M95.939 203.743L92.4023 204.756C92.289 204.791 92.1652 204.777 92.0568 204.717C91.9483 204.658 91.8635 204.557 91.8199 204.436C91.78 204.314 91.7857 204.182 91.8357 204.069C91.8858 203.956 91.9763 203.87 92.0879 203.831L95.6257 202.82C95.7384 202.786 95.8616 202.799 95.9698 202.858C96.078 202.917 96.1629 203.017 96.207 203.137C96.2485 203.259 96.2436 203.392 96.1934 203.505C96.1431 203.619 96.0516 203.704 95.939 203.743Z" fill="#AEAEAF"/>
<path d="M82.644 211.706C79.6658 212.274 76.6225 212.495 73.5672 212.363C72.9897 212.336 72.9133 211.368 73.4908 211.394C76.466 211.536 79.4306 211.333 82.3327 210.79C82.4456 210.757 82.5681 210.771 82.6759 210.829C82.7837 210.888 82.8688 210.987 82.914 211.107C82.9556 211.229 82.9507 211.361 82.9004 211.475C82.8502 211.588 82.7587 211.674 82.646 211.712L82.644 211.706Z" fill="#AEAEAF"/>
<path d="M77.1764 219.601C74.4531 219.608 71.7389 219.762 69.0442 220.064C68.4666 220.13 68.3941 219.164 68.966 219.1C71.6612 218.794 74.3766 218.639 77.101 218.636C77.6815 218.634 77.7465 219.606 77.1764 219.601Z" fill="#AEAEAF"/>
<path d="M59.8627 221.398L48.8735 219.828C48.2925 219.744 48.4533 218.805 49.0305 218.886L60.0225 220.455C60.5997 220.537 60.4398 221.479 59.8627 221.398Z" fill="#AEAEAF"/>
<path d="M140.761 121.344L132.119 123.022C131.559 123.13 131.24 122.21 131.806 122.1L140.447 120.422C141.007 120.311 141.327 121.234 140.761 121.344Z" fill="#AEAEAF"/>
<path d="M134.438 127.932C132.31 128.402 130.225 129.038 128.198 129.837C127.66 130.047 127.35 129.124 127.885 128.915C129.912 128.119 131.998 127.483 134.126 127.013C134.685 126.892 135.004 127.812 134.439 127.935L134.438 127.932Z" fill="#AEAEAF"/>
<path d="M103.342 218.02L100.474 225.248C100.251 225.811 99.4287 225.36 99.6523 224.8L102.519 217.569C102.745 217.006 103.565 217.457 103.342 218.02Z" fill="#AEAEAF"/>
<path d="M135.407 150.307L131.866 151.318C131.753 151.353 131.63 151.339 131.522 151.281C131.414 151.222 131.329 151.122 131.285 151.001C131.245 150.879 131.25 150.747 131.3 150.634C131.351 150.521 131.441 150.436 131.553 150.396L135.093 149.385C135.206 149.349 135.33 149.362 135.438 149.421C135.546 149.48 135.631 149.581 135.675 149.702C135.715 149.824 135.709 149.956 135.659 150.069C135.609 150.182 135.518 150.267 135.407 150.307Z" fill="#AEAEAF"/>
<path d="M132.208 148.02C130.92 148.727 129.534 149.228 128.093 149.508C127.98 149.541 127.856 149.527 127.748 149.467C127.64 149.408 127.555 149.308 127.511 149.188C127.47 149.065 127.475 148.933 127.525 148.82C127.575 148.707 127.666 148.621 127.779 148.582C129.143 148.329 130.456 147.867 131.679 147.209C131.775 147.143 131.894 147.119 132.01 147.143C132.126 147.167 132.231 147.238 132.305 147.339C132.374 147.445 132.403 147.573 132.386 147.697C132.369 147.82 132.307 147.93 132.214 148.001L132.208 148.02Z" fill="#AEAEAF"/>
<path d="M116.308 127.493L108.547 129.139C107.987 129.258 107.667 128.334 108.233 128.217L115.996 126.574C116.556 126.456 116.875 127.376 116.309 127.496L116.308 127.493Z" fill="#AEAEAF"/>
<path d="M46.2374 180.435C43.8164 183.019 41.8562 186.055 40.4443 189.408C40.2112 189.967 39.3885 189.516 39.6227 188.96C41.0646 185.532 43.0665 182.427 45.5394 179.784C45.9404 179.356 46.6402 180.003 46.2374 180.435Z" fill="#AEAEAF"/>
<path d="M35.8013 195.957C34.0593 198.168 32.7383 200.73 31.9068 203.51C31.8808 203.628 31.8145 203.73 31.7206 203.796C31.6266 203.862 31.5115 203.888 31.397 203.868C31.2785 203.839 31.1732 203.762 31.1043 203.653C31.0353 203.544 31.0082 203.412 31.0289 203.287C31.8985 200.351 33.2842 197.643 35.1146 195.302C35.1908 195.207 35.3008 195.15 35.4204 195.144C35.54 195.138 35.6593 195.183 35.7523 195.269C35.8452 195.355 35.9041 195.476 35.9159 195.604C35.9277 195.732 35.8916 195.857 35.8154 195.952L35.8013 195.957Z" fill="#AEAEAF"/>
</g>
<defs>
<clipPath id="clip0_1_64">
<rect width="214.417" height="237.991" fill="white" transform="matrix(-0.946832 0.32173 0.32173 0.946832 135.017 0.67804)"/>
</clipPath>
</defs>
</svg>
