<svg width="30" height="49" viewBox="0 0 30 49" fill="none" xmlns="http://www.w3.org/2000/svg">
<g clip-path="url(#clip0_1_176)">
<path d="M8.16141 32.1826C9.00403 34.3282 9.53717 36.5853 9.74447 38.8845C10.4536 38.6699 11.2105 38.679 11.9144 38.9104C12.5235 39.1104 13.0896 39.4697 13.7076 39.6299C14.475 39.8298 15.279 39.7117 16.0477 39.9033C16.5786 40.0354 17.0784 40.3116 17.6121 40.4242C19.0375 40.7248 20.3924 39.8333 21.755 39.325C22.0889 39.1999 22.4373 39.0971 22.7919 39.1208C23.1313 39.1439 23.4576 39.2831 23.7908 39.3642C24.2796 39.478 24.7885 39.4694 25.2733 39.3392C25.7581 39.2089 26.2041 38.9609 26.5726 38.6167C27.0261 38.1972 27.8045 37.4378 27.8204 36.8351C27.8529 35.564 27.1505 34.6515 26.7461 33.6292C25.9888 31.6965 24.8407 29.9451 23.3754 28.4872L8.16141 32.1826Z" fill="#4C4C4C"/>
<path d="M9.53361 43.17C8.1607 44.6523 7.12929 44.7397 5.79303 45.5291C5.51651 45.6941 5.1923 45.9486 5.25797 46.2703L9.43199 44.869C9.53568 44.8341 9.65597 44.7991 9.74929 44.8586C9.84261 44.918 9.86958 45.0634 9.87373 45.1851C9.91382 46.3395 9.70298 47.5498 10.1461 48.6112C10.6646 47.6323 10.3874 46.4276 10.5567 45.3284C10.5671 45.1946 10.6151 45.0665 10.695 44.9592C10.8713 44.7586 11.1899 44.7977 11.4409 44.8893C12.4778 45.2592 13.3074 46.1927 14.4051 46.2919C14.3554 45.8067 13.8452 45.5368 13.4159 45.313C12.2637 44.715 11.2553 43.8683 10.462 42.8329L9.53361 43.17Z" fill="#DA8D82"/>
<path d="M20.1207 39.1789C18.7414 39.7886 17.3834 40.4323 16.0469 41.1101C15.767 41.2499 15.4462 41.4702 15.5119 41.7457L19.6859 40.5402C19.7896 40.5109 19.9099 40.4822 20.0032 40.5319C20.0965 40.5815 20.1235 40.7074 20.1276 40.8115C20.1677 41.8023 19.9569 42.8393 20.4 43.7545C20.9185 42.9155 20.6413 41.8806 20.8106 40.9381C20.8223 40.8201 20.8707 40.709 20.9489 40.6207C21.1252 40.4486 21.4439 40.4808 21.6948 40.5591C22.7317 40.8766 23.5647 41.6779 24.6591 41.7625C24.6093 41.3429 24.0991 41.1143 23.6698 40.9234C22.548 40.4326 21.5413 39.7075 20.7159 38.7957L20.1207 39.1789Z" fill="#DA8D82"/>
<path d="M9.21147 37.6399C9.13893 39.4804 9.18512 41.3237 9.34973 43.1581C9.43199 44.0733 9.4078 43.6007 9.95115 44.3369C10.2671 43.6678 10.4019 44.3299 10.4351 43.5888C10.5422 41.2213 10.4758 38.8523 10.4793 36.4834L9.21147 37.6399Z" fill="#DA8D82"/>
<path d="M19.9272 33.0475C19.8547 34.888 19.9008 36.7313 20.0655 38.5657C20.147 39.4809 20.1975 39.4047 20.7408 40.1396C21.0568 39.4704 21.1459 39.7382 21.1508 38.9964C21.166 36.6279 21.1807 34.2595 21.195 31.891L19.9272 33.0475Z" fill="#DA8D82"/>
<path d="M29.0267 17.9187C29.5258 18.9102 29.7919 20.0086 29.9157 21.1141C30.2392 24.0172 29.4566 27.2091 27.2293 29.0697C26.7046 29.5081 25.9926 29.8759 25.3628 29.6109C24.872 29.4046 24.6024 28.8809 24.3715 28.3957C23.9632 27.5356 23.5585 26.6733 23.1576 25.8086C22.3806 24.134 21.6174 22.4524 20.9869 20.7155C20.3841 19.0556 19.8809 17.2593 20.1574 15.4777C20.3344 14.3247 20.8936 12.4998 22.2838 12.3977C23.5164 12.3075 25.0662 13.7703 25.985 14.48C27.2016 15.4204 28.3257 16.5245 29.0267 17.9187Z" fill="#BBA8B8"/>
<path d="M28.9251 22.0748C29.1249 21.9106 29.3059 21.7244 29.465 21.5196C29.69 21.2031 29.8046 20.8198 29.7906 20.4302C29.8546 21.094 29.9191 21.7573 29.9841 22.4202C30.0049 22.6335 30.0228 22.8607 29.926 23.0495C29.7608 23.3718 29.3461 23.4557 29.0758 23.6942C28.7826 23.9529 28.6872 24.3654 28.502 24.7115C28.2517 25.1786 27.8342 25.5268 27.427 25.8624C26.4053 26.705 25.1624 25.4597 25.8239 24.3871C26.1156 23.9137 26.6846 23.6704 27.1422 23.4082C27.7941 23.032 28.363 22.5719 28.9251 22.0748Z" fill="#4C4C4C"/>
<path d="M28.0823 27.5021C28.6084 26.9469 29.0073 26.2826 29.3882 25.6142C29.4338 25.8883 29.3419 26.1645 29.2499 26.4267C29.0211 27.086 28.7895 27.7552 28.4107 28.3362C28.148 28.7418 27.8203 29.0991 27.4941 29.455L25.7472 31.3554C25.8592 31.2331 25.8218 30.0752 25.9027 29.8116C25.9933 29.5172 26.1032 29.1564 26.2864 28.9026C26.7295 28.2978 27.559 28.0544 28.0823 27.5021Z" fill="#4C4C4C"/>
<path d="M6.41174 11.0972C6.41174 11.0972 0.589678 13.7751 0.0732826 18.4969C-0.443112 23.2187 4.72153 29.9059 4.72153 29.9059L6.87905 23.1376L6.41174 11.0972Z" fill="#BBA8B8"/>
<path d="M0.491521 19.9995C0.58761 20.0631 0.698909 20.1044 0.781864 20.1841C0.89731 20.2953 0.938788 20.4638 0.989252 20.6134C1.1918 21.1819 1.62386 21.6308 2.04416 22.0608C2.07136 22.0976 2.1114 22.1226 2.15615 22.1307C2.19995 22.1252 2.24198 22.1099 2.2792 22.0859C2.45963 22.009 2.6442 22.1789 2.76933 22.3321C3.23802 22.9054 3.73299 23.5515 3.70741 24.2948C3.70257 24.4451 3.66594 24.6101 3.54427 24.6968C3.34794 24.8366 3.08179 24.687 2.88961 24.5409L2.04278 23.8969C1.83981 23.7555 1.65578 23.5882 1.49528 23.3991C1.26577 23.1026 1.16208 22.7285 0.994783 22.3922C0.799839 22.0006 0.497744 21.8063 0.298652 21.4175C0.111312 21.0504 -0.0898534 19.8093 0.0359617 19.0779C0.098178 19.3604 0.239891 19.8317 0.491521 19.9995Z" fill="#4C4C4C"/>
<path d="M2.63867 27.4517C3.12257 28.3397 3.80626 29.1634 4.73466 29.541C4.41321 28.576 4.08762 27.6034 3.5726 26.7287C3.12879 25.975 2.36976 25.3625 1.53122 24.6437C1.79566 25.6185 2.16712 26.5604 2.63867 27.4517Z" fill="#4C4C4C"/>
<path d="M17.9584 32.1329C17.7207 33.3883 17.7835 34.6829 18.1416 35.9087C18.293 36.4261 18.5093 36.9463 18.9061 37.3071C19.6106 37.9455 20.7491 37.9021 21.5469 37.3882C22.3446 36.8743 22.8403 35.9898 23.1237 35.0731C23.4071 34.1565 23.506 33.2013 23.6968 32.2644C23.8929 31.3047 24.1848 30.3677 24.5678 29.4676C24.6369 29.3011 24.6708 29.0403 24.4987 28.9991L17.9584 32.1329Z" fill="#4D4875"/>
<path d="M5.65131 31.9679C5.91607 33.0866 6.36264 34.1438 6.80784 35.199C7.29174 36.3485 7.49913 40.0871 9.47484 40.0871C12.3223 40.0871 12.1329 37.6832 12.3741 36.5302C12.5219 35.8247 12.6322 35.1116 12.7046 34.3942L5.65131 31.9679Z" fill="#4D4875"/>
<path d="M26.7095 20.2932C25.7617 18.4536 24.5395 16.7727 23.5053 14.9792C22.9371 13.9947 22.4131 12.9312 22.3868 11.7915C22.3357 9.58341 25.4928 5.74544 25.1589 3.5625C24.9902 2.46125 24.2657 1.49284 23.3366 0.892917C22.4076 0.292994 21.2959 0.0370839 20.1899 0.00212335C18.1658 -0.0615049 12.5995 1.41872 8.57618 7.56828C5.48334 12.2915 2.74928 17.4342 2.7313 23.0992C2.72232 26.0526 3.15575 31.4827 8.69508 34.3362C11.6109 35.8388 16.3947 36.0807 19.6368 35.6318C25.1589 34.8704 27.9413 28.6474 28.1508 26.2582C28.3312 24.1913 27.6558 22.1336 26.7095 20.2932Z" fill="#9787AB"/>
<path d="M19.2656 5.27484C19.2656 5.27484 17.5056 8.31221 18.2204 9.07575C18.9352 9.83929 21.737 7.1753 21.737 7.1753L21.2206 5.27484H19.2656Z" fill="#4C4C4C"/>
<path d="M19.5504 4.05473C19.9541 3.70863 20.5134 3.59885 21.0422 3.62752C21.323 3.63284 21.5988 3.70265 21.849 3.83169C21.9731 3.897 22.0818 3.98857 22.1678 4.10017C22.2538 4.21177 22.3151 4.34079 22.3474 4.47846C22.8451 4.53299 23.2585 4.9714 23.347 5.46924C23.4355 5.96708 23.2246 6.49358 22.8631 6.83969C22.5015 7.1858 21.9955 7.3613 21.4964 7.38647C21.672 6.82711 21.3132 6.2153 20.8183 5.91394C20.5536 5.76082 20.2648 5.65509 19.9645 5.60139C19.7571 5.55874 19.3022 5.5944 19.164 5.43707C18.8329 5.06929 19.2691 4.29596 19.5504 4.05473Z" fill="#4D4875"/>
<path d="M19.211 1.66135C19.4965 1.98159 19.332 2.60179 18.8446 3.04648C18.3573 3.49118 17.7303 3.59327 17.4448 3.27373C17.1593 2.95419 17.3238 2.33399 17.8112 1.88859C18.2985 1.44319 18.9255 1.34181 19.211 1.66135Z" fill="#AEAEAF"/>
<path d="M18.9103 1.93749C19.0983 2.14726 18.9905 2.55699 18.6683 2.85066C18.3462 3.14433 17.9335 3.21145 17.7455 3.00099C17.5574 2.79053 17.6653 2.38079 17.9874 2.08712C18.3096 1.79346 18.7223 1.72773 18.9103 1.93749Z" fill="#BA5535"/>
<path d="M18.5923 2.13956C18.7305 2.21368 18.7264 2.41924 18.5805 2.60174C18.4347 2.78423 18.2031 2.87023 18.0635 2.79612C17.9238 2.722 17.9252 2.51643 18.0745 2.33324C18.2238 2.15005 18.452 2.06474 18.5923 2.13956Z" fill="#4C4C4C"/>
<path d="M18.2273 2.35707C18.3054 2.44447 18.2605 2.61507 18.1264 2.73744C17.9923 2.8598 17.8201 2.88777 17.742 2.79967C17.6639 2.71156 17.7088 2.54166 17.843 2.4193C17.9771 2.29693 18.1485 2.26687 18.2273 2.35707Z" fill="white"/>
<path d="M24.3411 5.9293C24.4386 6.15654 24.2478 6.69144 23.9146 7.12285C23.5813 7.55426 23.2316 7.72067 23.1341 7.49343C23.0366 7.26619 23.2274 6.73129 23.5606 6.29988C23.8938 5.86847 24.2436 5.70205 24.3411 5.9293Z" fill="#AEAEAF"/>
<path d="M24.1358 6.19568C24.2001 6.34531 24.0742 6.69771 23.8544 6.98299C23.6346 7.26827 23.4037 7.37665 23.3394 7.22702C23.2751 7.07738 23.4009 6.72428 23.6208 6.43971C23.8406 6.15513 24.0715 6.04535 24.1358 6.19568Z" fill="#BA5535"/>
<path d="M23.9325 6.40549C23.9947 6.44815 23.9567 6.62085 23.8489 6.78936C23.741 6.95787 23.6042 7.06065 23.5426 7.0173C23.4811 6.97395 23.5184 6.80195 23.6263 6.63344C23.7341 6.46493 23.871 6.36214 23.9325 6.40549Z" fill="#4C4C4C"/>
<path d="M23.703 6.63134C23.73 6.69357 23.6775 6.8411 23.5862 6.95857C23.495 7.07604 23.3982 7.12288 23.3719 7.06066C23.3456 6.99843 23.3975 6.85089 23.4887 6.73273C23.58 6.61456 23.6761 6.56841 23.703 6.63134Z" fill="white"/>
<path d="M15.3508 41.8065C15.5855 41.7172 15.8137 41.6113 16.0338 41.4898C16.0618 41.4729 16.0822 41.4456 16.0904 41.4136C16.0987 41.3817 16.0943 41.3478 16.0781 41.3192C16.0611 41.2911 16.0341 41.2708 16.0026 41.2625C15.9712 41.2541 15.9378 41.2584 15.9094 41.2744C15.8057 41.3318 15.7004 41.3854 15.5935 41.4353L15.514 41.4716L15.4746 41.4891L15.4517 41.4989C15.46 41.4989 15.46 41.4989 15.4517 41.4989C15.3958 41.522 15.3404 41.545 15.2845 41.5688C15.2532 41.5783 15.2268 41.5995 15.2107 41.6282C15.1946 41.6568 15.1901 41.6907 15.198 41.7226C15.2071 41.7544 15.2281 41.7813 15.2565 41.7977C15.2849 41.814 15.3185 41.8185 15.3501 41.81L15.3508 41.8065Z" fill="#4C4C4C"/>
<path d="M20.5023 43.8902C20.5258 43.693 20.5494 43.4965 20.5715 43.2994C20.5715 43.2662 20.5584 43.2343 20.5352 43.2109C20.512 43.1874 20.4805 43.1742 20.4477 43.1742C20.4153 43.1753 20.3845 43.1888 20.3616 43.2121C20.3388 43.2353 20.3255 43.2666 20.3247 43.2994C20.3005 43.4965 20.277 43.693 20.2556 43.8902C20.2556 43.9233 20.2685 43.955 20.2916 43.9784C20.3146 44.0019 20.3459 44.0152 20.3786 44.0153C20.4111 44.0145 20.4421 44.001 20.4651 43.9777C20.4882 43.9544 20.5015 43.9231 20.5023 43.8902Z" fill="#4C4C4C"/>
<path d="M24.272 41.6583L24.7966 41.9848C24.8249 42.0012 24.8585 42.0057 24.89 41.9973C24.9216 41.989 24.9486 41.9684 24.9653 41.9401C24.9812 41.9114 24.9854 41.8776 24.9772 41.8457C24.9689 41.8139 24.9488 41.7866 24.9211 41.7695L24.3964 41.4422C24.368 41.426 24.3346 41.4216 24.3031 41.43C24.2716 41.4383 24.2445 41.4588 24.2277 41.487C24.2118 41.5158 24.2076 41.5497 24.2158 41.5816C24.2241 41.6135 24.2442 41.641 24.272 41.6583Z" fill="#4C4C4C"/>
<path d="M10.0783 48.2791H10.1046C10.1209 48.2799 10.1372 48.2763 10.1516 48.2686C10.1669 48.2635 10.1807 48.2546 10.1917 48.2428C10.2035 48.2316 10.2123 48.2177 10.2173 48.2022C10.2249 48.1876 10.2284 48.1712 10.2277 48.1547L10.2235 48.1211C10.2175 48.1004 10.2066 48.0814 10.1917 48.0659L10.1668 48.0463C10.1479 48.0352 10.1265 48.0294 10.1046 48.0295H10.0783C10.0618 48.0288 10.0454 48.0324 10.0306 48.04C10.0157 48.0453 10.0021 48.0542 9.99124 48.0659C9.9796 48.0771 9.97083 48.091 9.96566 48.1064C9.95801 48.1213 9.95443 48.1379 9.9553 48.1547L9.95945 48.1875C9.9652 48.2084 9.97614 48.2274 9.99124 48.2428L10.0161 48.2623C10.035 48.2734 10.0565 48.2792 10.0783 48.2791Z" fill="#4C4C4C"/>
<path d="M10.0887 48.2756H10.0963L10.0341 48.2582C10.0231 48.2528 10.0137 48.2447 10.0065 48.2347C9.99941 48.2247 9.99487 48.2131 9.99333 48.2008C9.99333 48.2057 9.99333 48.2106 9.99333 48.2155C9.99333 48.2204 9.99333 48.2442 9.99678 48.2582C9.99678 48.2868 10.0016 48.3155 10.0044 48.3442C10.0092 48.4043 10.0148 48.4637 10.0196 48.5232C10.0293 48.6406 10.0396 48.7574 10.0493 48.8728C10.05 48.9057 10.0633 48.9372 10.0863 48.9605C10.1094 48.9838 10.1405 48.9972 10.1731 48.9979C10.2056 48.9974 10.2367 48.984 10.2597 48.9606C10.2827 48.9373 10.2958 48.9057 10.2961 48.8728C10.2837 48.7329 10.2719 48.5868 10.2595 48.4435C10.2533 48.3735 10.247 48.3036 10.2415 48.2281C10.2416 48.1856 10.2331 48.1435 10.2166 48.1043C10.2046 48.0801 10.1861 48.0598 10.1633 48.0456C10.1404 48.0314 10.1141 48.0239 10.0873 48.0239C10.0548 48.0245 10.0237 48.0379 10.0007 48.0612C9.97771 48.0846 9.96465 48.1161 9.96429 48.1491C9.96483 48.1819 9.97796 48.2133 10.0009 48.2365C10.0239 48.2597 10.0549 48.273 10.0873 48.2735L10.0887 48.2756Z" fill="#4C4C4C"/>
<path d="M14.0097 46.1647L14.3111 46.315L14.4563 46.3884L14.5289 46.4248C14.5406 46.4304 14.5517 46.4353 14.5621 46.4416L14.5766 46.4507C14.5677 46.4466 14.5605 46.4394 14.5565 46.4304C14.5737 46.4575 14.5996 46.4777 14.6298 46.4877C14.6628 46.4976 14.6984 46.4938 14.7287 46.4772C14.7566 46.4601 14.7768 46.4326 14.7851 46.4007C14.7933 46.3687 14.789 46.3347 14.7729 46.3059C14.7508 46.2749 14.7228 46.2485 14.6906 46.2283C14.6664 46.2143 14.6402 46.2025 14.6153 46.1906L14.4597 46.1123L14.1376 45.9514C14.1093 45.9352 14.0758 45.9308 14.0443 45.9392C14.0128 45.9476 13.9858 45.968 13.9689 45.9962C13.9531 46.0249 13.9488 46.0587 13.9571 46.0905C13.9653 46.1223 13.9854 46.1497 14.0132 46.1668L14.0097 46.1647Z" fill="#4C4C4C"/>
<path d="M5.04365 46.4374C5.31168 46.2596 5.59112 46.1001 5.88012 45.9598C5.90826 45.9431 5.92871 45.9157 5.937 45.8837C5.94528 45.8518 5.94074 45.8178 5.92436 45.7892C5.90741 45.7612 5.88038 45.7408 5.84893 45.7325C5.81749 45.7242 5.78407 45.7284 5.75568 45.7445C5.46749 45.885 5.18875 46.0445 4.92129 46.222C4.89369 46.2393 4.8737 46.2666 4.86547 46.2984C4.85723 46.3302 4.86138 46.3639 4.87705 46.3926C4.89389 46.421 4.92105 46.4416 4.95271 46.45C4.98437 46.4583 5.01801 46.4538 5.04642 46.4374H5.04365Z" fill="#4C4C4C"/>
<path d="M8.23052 10.3168C7.85744 10.899 7.53148 11.5107 7.2558 12.146C7.24043 12.1749 7.23645 12.2086 7.24465 12.2404C7.25286 12.2722 7.27265 12.2996 7.30004 12.3173C7.32849 12.3338 7.36226 12.3383 7.39398 12.3298C7.4257 12.3213 7.45281 12.3005 7.46941 12.2718C7.74453 11.6362 8.07029 11.0242 8.44344 10.442C8.52986 10.307 8.31624 10.1819 8.23052 10.3161V10.3168Z" fill="#AEAEAF"/>
<path d="M6.45527 13.7108C6.08936 14.5531 5.87133 15.4534 5.81099 16.3713C5.80062 16.5322 6.04741 16.5315 6.05778 16.3713C6.11511 15.4971 6.3226 14.6396 6.67095 13.8374C6.68633 13.8085 6.69031 13.7747 6.68211 13.743C6.6739 13.7112 6.65411 13.6837 6.62671 13.6661C6.5983 13.6497 6.56466 13.6452 6.533 13.6535C6.50134 13.6619 6.47418 13.6825 6.45734 13.7108H6.45527Z" fill="#AEAEAF"/>
<path d="M7.81576 13.1039C7.69502 13.5789 7.57381 14.0534 7.45214 14.5275C7.41274 14.6827 7.65054 14.7491 7.69064 14.5939L8.05357 13.1703C8.09366 13.0144 7.85586 12.9487 7.81576 13.1039Z" fill="#AEAEAF"/>
<path d="M6.36404 18.7332V20.9365C6.36638 20.9679 6.38039 20.9974 6.40327 21.0189C6.42616 21.0403 6.45622 21.0523 6.48744 21.0523C6.51866 21.0523 6.54872 21.0403 6.57161 21.0189C6.59449 20.9974 6.6085 20.9679 6.61084 20.9365V18.7332C6.6085 18.7018 6.59449 18.6723 6.57161 18.6508C6.54872 18.6294 6.51866 18.6174 6.48744 18.6174C6.45622 18.6174 6.42616 18.6294 6.40327 18.6508C6.38039 18.6723 6.36638 18.7018 6.36404 18.7332Z" fill="#AEAEAF"/>
<path d="M5.03883 18.1473C4.67187 19.2165 4.49949 20.3441 4.53003 21.4755C4.53948 21.7941 4.56487 22.1119 4.60608 22.4279C4.60729 22.4606 4.62073 22.4917 4.6437 22.5148C4.66667 22.5379 4.69744 22.5513 4.72982 22.5523C4.78927 22.5523 4.86186 22.4943 4.85287 22.4279C4.70828 21.328 4.76238 20.2107 5.01256 19.1304C5.08489 18.8204 5.17303 18.5145 5.27663 18.2137C5.32917 18.0613 5.09067 17.9963 5.03883 18.1473Z" fill="#AEAEAF"/>
<path d="M3.92999 24.9898C4.16168 26.0279 4.45956 27.0497 4.82176 28.0488C4.87568 28.1985 5.11418 28.1341 5.05957 27.9831C4.69745 26.9837 4.39958 25.9616 4.1678 24.9234C4.13323 24.7667 3.89128 24.8325 3.92999 24.9933V24.9898Z" fill="#AEAEAF"/>
<path d="M5.9541 29.271L7.2717 30.9275C7.29499 30.9507 7.32641 30.9638 7.35915 30.9638C7.39189 30.9638 7.4233 30.9507 7.4466 30.9275C7.46907 30.9038 7.48162 30.8722 7.48162 30.8394C7.48162 30.8065 7.46907 30.775 7.4466 30.7513L6.12831 29.0941C6.10505 29.0711 6.07377 29.0582 6.0412 29.0582C6.00863 29.0582 5.97736 29.0711 5.9541 29.0941C5.93158 29.118 5.91901 29.1496 5.91901 29.1826C5.91901 29.2156 5.93158 29.2472 5.9541 29.271Z" fill="#AEAEAF"/>
<path d="M8.49597 29.6074C8.84463 29.9543 9.15288 30.3404 9.41469 30.7583C9.49903 30.8939 9.71264 30.7688 9.62761 30.6324C9.35508 30.1962 9.03381 29.7931 8.67017 29.4312C8.5568 29.3186 8.38259 29.4948 8.49597 29.6074Z" fill="#AEAEAF"/>
<path d="M21.5579 16.1574C22.0478 16.7554 22.5237 17.3645 22.9855 17.9844C23.0025 18.0124 23.0296 18.0326 23.0609 18.0409C23.0923 18.0492 23.1257 18.045 23.1541 18.0292C23.1823 18.0124 23.2027 17.9851 23.211 17.9531C23.2193 17.9211 23.2148 17.8872 23.1984 17.8586C22.7246 17.2209 22.2361 16.5949 21.7328 15.9805C21.6312 15.8567 21.4563 16.0343 21.5579 16.1574Z" fill="#AEAEAF"/>
<path d="M24.6923 19.443C25.2796 20.0807 25.7145 20.8461 25.9635 21.6804C26.0092 21.8336 26.2477 21.7685 26.2013 21.6105C25.9398 20.7348 25.4834 19.9314 24.8671 19.2619C24.7586 19.1437 24.5844 19.3206 24.6923 19.4381V19.443Z" fill="#AEAEAF"/>
<path d="M25.2038 22.9348C25.4658 23.6712 25.5163 24.4675 25.3497 25.2317C25.3158 25.3877 25.5536 25.4548 25.5882 25.3017C25.7673 24.493 25.7172 23.6496 25.4437 22.8684C25.3905 22.7188 25.152 22.7831 25.2052 22.9348H25.2038Z" fill="#AEAEAF"/>
<path d="M27.0675 26.2883C27.0705 26.9792 26.9388 27.664 26.6797 28.3034C26.6712 28.3353 26.6756 28.3693 26.6918 28.398C26.7079 28.4266 26.7347 28.4477 26.7661 28.4565C26.7976 28.4646 26.8308 28.46 26.859 28.4439C26.8872 28.4277 26.9082 28.4012 26.9175 28.3698C27.1834 27.709 27.3182 27.0017 27.3143 26.2883C27.3143 26.1281 27.0668 26.1274 27.0675 26.2883Z" fill="#AEAEAF"/>
<path d="M23.3235 32.7685L24.3356 31.5099C24.3579 31.4862 24.3703 31.4546 24.3703 31.4218C24.3703 31.389 24.3579 31.3575 24.3356 31.3337C24.3241 31.3221 24.3105 31.313 24.2956 31.3067C24.2807 31.3004 24.2646 31.2972 24.2484 31.2972C24.2323 31.2972 24.2162 31.3004 24.2013 31.3067C24.1864 31.313 24.1728 31.3221 24.1613 31.3337L23.1493 32.5923C23.127 32.6161 23.1145 32.6476 23.1145 32.6804C23.1145 32.7132 23.127 32.7447 23.1493 32.7685C23.1725 32.7917 23.2038 32.8048 23.2364 32.8048C23.269 32.8048 23.3003 32.7917 23.3235 32.7685Z" fill="#AEAEAF"/>
<path d="M10.5809 7.00611L11.8059 5.25808C11.8978 5.12663 11.6842 5.00217 11.593 5.13222L10.368 6.88025C10.276 7.0117 10.4897 7.13686 10.5809 7.00681V7.00611Z" fill="#AEAEAF"/>
<path d="M10.8996 11.9243C11.1545 11.1356 11.4098 10.3471 11.6655 9.55889C11.7146 9.40576 11.4768 9.34073 11.4271 9.49246L10.6618 11.8579C10.612 12.011 10.8505 12.0767 10.8996 11.9243Z" fill="#AEAEAF"/>
<path d="M11.8073 13.6493C11.9049 13.0134 12.0462 12.3851 12.2303 11.7691C12.2767 11.6146 12.0382 11.5489 11.9925 11.7027C11.8084 12.3187 11.6671 12.9469 11.5695 13.5829C11.5619 13.6146 11.5665 13.6481 11.5824 13.6766C11.5983 13.705 11.6243 13.7263 11.6552 13.736C11.6867 13.7446 11.7203 13.7404 11.7488 13.7241C11.7772 13.7079 11.7982 13.681 11.8073 13.6493Z" fill="#AEAEAF"/>
<path d="M12.6112 15.4631C12.7157 14.8272 12.7652 14.1834 12.7592 13.5388C12.7592 13.378 12.511 13.378 12.5124 13.5388C12.52 14.161 12.4737 14.7826 12.3741 15.3966C12.3667 15.4286 12.3715 15.4622 12.3875 15.4907C12.4035 15.5192 12.4296 15.5406 12.4605 15.5505C12.4921 15.5589 12.5258 15.5544 12.5542 15.5381C12.5826 15.5218 12.6036 15.4948 12.6126 15.4631H12.6112Z" fill="#AEAEAF"/>
<path d="M13.8473 16.0917C13.9265 15.5673 14.0058 15.0426 14.0851 14.5177C14.0927 14.486 14.0881 14.4525 14.0721 14.424C14.0562 14.3956 14.0302 14.3743 13.9994 14.3646C13.9677 14.356 13.934 14.3604 13.9056 14.3767C13.8771 14.3931 13.8561 14.4201 13.8473 14.452C13.768 14.9764 13.6887 15.5008 13.6095 16.0252C13.6017 16.057 13.6062 16.0906 13.6222 16.1191C13.6381 16.1476 13.6642 16.1688 13.6952 16.1784C13.7267 16.1868 13.7602 16.1825 13.7886 16.1663C13.817 16.1501 13.8381 16.1233 13.8473 16.0917Z" fill="#AEAEAF"/>
<path d="M15.5098 13.6178C15.509 13.2546 15.6045 12.8977 15.7864 12.5844C15.8029 12.5558 15.8076 12.5216 15.7993 12.4895C15.791 12.4574 15.7704 12.4299 15.7421 12.4131C15.7138 12.3963 15.68 12.3916 15.6483 12.4C15.6165 12.4084 15.5893 12.4292 15.5727 12.4579C15.3707 12.8102 15.2648 13.2105 15.2658 13.6178C15.2681 13.6493 15.2822 13.6788 15.305 13.7002C15.3279 13.7217 15.358 13.7337 15.3892 13.7337C15.4204 13.7337 15.4505 13.7217 15.4734 13.7002C15.4963 13.6788 15.5103 13.6493 15.5126 13.6178H15.5098Z" fill="#AEAEAF"/>
<path d="M16.2716 14.3618C16.3242 14.0206 16.3763 13.6796 16.4279 13.3389C16.4355 13.3069 16.4308 13.2732 16.4147 13.2447C16.3987 13.2161 16.3725 13.1948 16.3415 13.185C16.3099 13.1764 16.2763 13.1808 16.248 13.1972C16.2196 13.2136 16.1988 13.2406 16.1901 13.2724C16.1375 13.6136 16.0854 13.9546 16.0338 14.2954C16.0262 14.3273 16.0309 14.361 16.047 14.3896C16.063 14.4181 16.0892 14.4395 16.1202 14.4492C16.1518 14.4578 16.1854 14.4534 16.2137 14.437C16.2421 14.4207 16.2629 14.3936 16.2716 14.3618Z" fill="#AEAEAF"/>
<path d="M17.3342 14.7184C17.365 14.2467 17.3966 13.7749 17.4289 13.3032C17.4392 13.1424 17.1924 13.1431 17.1821 13.3032C17.1503 13.7745 17.1187 14.2462 17.0874 14.7184C17.0763 14.8785 17.3231 14.8778 17.3342 14.7184Z" fill="#AEAEAF"/>
<path d="M20.1277 14.0283C19.7964 13.2635 19.7488 12.4036 19.9935 11.6062C20.0405 11.4524 19.8021 11.3866 19.755 11.5398C19.4948 12.4024 19.5515 13.3311 19.9147 14.1548C19.9316 14.183 19.9586 14.2035 19.9901 14.2118C20.0216 14.2202 20.0551 14.2158 20.0834 14.1996C20.1112 14.1823 20.1313 14.1548 20.1396 14.1229C20.1478 14.091 20.1435 14.0571 20.1277 14.0283Z" fill="#AEAEAF"/>
<path d="M21.2399 13.8534L20.9703 11.3363C20.9693 11.3034 20.9559 11.2722 20.9329 11.2489C20.91 11.2257 20.8791 11.2122 20.8466 11.2111C20.8139 11.2113 20.7826 11.2246 20.7595 11.248C20.7365 11.2715 20.7235 11.3032 20.7235 11.3363L20.9931 13.8534C20.9944 13.8862 21.0078 13.9172 21.0308 13.9403C21.0537 13.9634 21.0845 13.9769 21.1169 13.9779C21.1495 13.9779 21.1808 13.9648 21.2039 13.9414C21.227 13.9181 21.2399 13.8864 21.2399 13.8534Z" fill="#AEAEAF"/>
<path d="M14.2019 3.4758C14.5867 3.10532 15.0434 2.81961 15.543 2.63674C15.5741 2.62715 15.6004 2.60585 15.6165 2.57724C15.6326 2.54862 15.6372 2.51487 15.6294 2.48292C15.6204 2.45117 15.5994 2.42428 15.5709 2.40806C15.5425 2.39184 15.5088 2.38759 15.4773 2.39621C14.9361 2.59371 14.4417 2.90331 14.0256 3.30519C13.9102 3.41636 14.0851 3.59256 14.1998 3.48139L14.2019 3.4758Z" fill="#AEAEAF"/>
<path d="M20.5839 17.2243C21.1204 17.7837 21.634 18.3664 22.1248 18.9724C22.2257 19.0961 22.4013 18.9185 22.299 18.7955C21.8091 18.1927 21.2957 17.6101 20.7588 17.0474C20.6482 16.9321 20.474 17.1083 20.5839 17.2243Z" fill="#AEAEAF"/>
<path d="M22.3253 14.4708L23.4763 16.4482C23.5565 16.5881 23.7701 16.4608 23.6892 16.3224L22.5403 14.345C22.5321 14.3309 22.5213 14.3185 22.5084 14.3086C22.4955 14.2987 22.4808 14.2914 22.4651 14.2873C22.4494 14.2831 22.4331 14.2821 22.4171 14.2844C22.401 14.2866 22.3856 14.292 22.3716 14.3002C22.3576 14.3085 22.3454 14.3195 22.3356 14.3325C22.3258 14.3456 22.3187 14.3604 22.3146 14.3763C22.3104 14.3921 22.3095 14.4086 22.3117 14.4249C22.3139 14.4411 22.3192 14.4567 22.3274 14.4708H22.3253Z" fill="#AEAEAF"/>
<path d="M21.7107 12.2796C21.7544 11.6006 21.8468 10.9257 21.9872 10.2602C22.0204 10.1036 21.7798 10.0365 21.7494 10.1938C21.6056 10.8813 21.5111 11.5783 21.4667 12.2796C21.457 12.4404 21.7038 12.4397 21.7135 12.2796H21.7107Z" fill="#AEAEAF"/>
<path d="M7.60837 34.5865C7.80601 35.2311 7.96029 35.8884 8.07015 36.5541C8.09642 36.7121 8.33422 36.6457 8.30865 36.4841C8.19804 35.82 8.04353 35.164 7.84617 34.5208C7.79986 34.3676 7.56136 34.4334 7.60837 34.5907V34.5865Z" fill="#AEAEAF"/>
<path d="M8.32107 37.5721C8.52523 38.0723 8.72963 38.5722 8.93425 39.0719C8.94373 39.1032 8.96471 39.1297 8.99287 39.1458C9.02103 39.1619 9.05423 39.1665 9.08564 39.1586C9.1171 39.1498 9.14385 39.1288 9.16003 39.1001C9.17622 39.0714 9.18054 39.0374 9.17205 39.0055C8.96743 38.5053 8.76304 38.0056 8.55888 37.5064C8.54924 37.475 8.52816 37.4485 8.49992 37.4323C8.47167 37.4161 8.43838 37.4113 8.40679 37.419C8.37546 37.428 8.34888 37.4491 8.33284 37.4778C8.31679 37.5064 8.31256 37.5403 8.32107 37.5721Z" fill="#AEAEAF"/>
<path d="M19.9396 37.1819C20.4104 37.1659 20.9669 37.1078 21.2462 36.668C21.3319 36.5324 21.1183 36.4072 21.0326 36.5422C20.8093 36.8953 20.3116 36.9197 19.9396 36.9323C19.7806 36.9379 19.7799 37.1875 19.9396 37.1819Z" fill="#AEAEAF"/>
<path d="M20.8397 36.1988L21.3022 35.5653C21.3186 35.5368 21.3231 35.5028 21.3148 35.4708C21.3065 35.4389 21.2861 35.4115 21.2579 35.3947C21.2294 35.3787 21.1959 35.3744 21.1644 35.3827C21.1328 35.391 21.1056 35.4114 21.0886 35.4395C20.9351 35.6506 20.7812 35.8604 20.6268 36.0688C20.6104 36.0975 20.6058 36.1316 20.6141 36.1636C20.6224 36.1957 20.6428 36.2232 20.671 36.2401C20.6995 36.2558 20.7328 36.2599 20.7641 36.2515C20.7955 36.2432 20.8225 36.2231 20.8397 36.1953V36.1988Z" fill="#AEAEAF"/>
<path d="M22.0992 36.2422L22.4075 35.4535C22.416 35.4216 22.4117 35.3876 22.3955 35.3589C22.3793 35.3302 22.3526 35.3092 22.3211 35.3003C22.2897 35.2923 22.2564 35.2968 22.2282 35.313C22.2 35.3291 22.1791 35.3557 22.1697 35.3871C22.0665 35.65 21.9637 35.9129 21.8614 36.1758C21.8527 36.2076 21.8569 36.2416 21.8729 36.2703C21.889 36.299 21.9157 36.3201 21.9471 36.3289C21.9786 36.337 22.012 36.3325 22.0403 36.3163C22.0687 36.3002 22.0897 36.2736 22.0992 36.2422Z" fill="#AEAEAF"/>
</g>
<defs>
<clipPath id="clip0_1_176">
<rect width="30" height="49" fill="white"/>
</clipPath>
</defs>
</svg>
